<?xml version="1.0" encoding="UTF-8" standalone="no"?>
<!-- Created with Inkscape (http://www.inkscape.org/) -->

<svg
   width="734.09052"
   height="507.82764"
   viewBox="0 0 194.22812 134.36273"
   version="1.1"
   id="svg5"
   inkscape:version="1.1.1 (3bf5ae0d25, 2021-09-20)"
   sodipodi:docname="시발.svg"
   xmlns:inkscape="http://www.inkscape.org/namespaces/inkscape"
   xmlns:sodipodi="http://sodipodi.sourceforge.net/DTD/sodipodi-0.dtd"
   xmlns="http://www.w3.org/2000/svg"
   xmlns:svg="http://www.w3.org/2000/svg">
  <sodipodi:namedview
     id="namedview7"
     pagecolor="#505050"
     bordercolor="#ffffff"
     borderopacity="1"
     inkscape:pageshadow="0"
     inkscape:pageopacity="0"
     inkscape:pagecheckerboard="1"
     inkscape:document-units="mm"
     showgrid="false"
     inkscape:zoom="1.0396203"
     inkscape:cx="242.87714"
     inkscape:cy="196.70644"
     inkscape:window-width="1920"
     inkscape:window-height="1009"
     inkscape:window-x="-8"
     inkscape:window-y="-8"
     inkscape:window-maximized="1"
     inkscape:current-layer="svg5"
     showguides="false"
     inkscape:snap-page="false"
     units="px"
     width="8.25in"
     fit-margin-left="-2.7755576e-17"
     fit-margin-top="-2.7755576e-17"
     fit-margin-right="-2.7755576e-17"
     fit-margin-bottom="-2.7755576e-17"
     lock-margins="true"
     scale-x="1" />
  <defs
     id="defs2" />
  <g
     inkscape:label="레이어 1"
     inkscape:groupmode="layer"
     id="layer1"
     transform="translate(-6.5420759,-20.231035)">
    <path
       style="fill:none;stroke:#000000;stroke-width:0.264583px;stroke-linecap:butt;stroke-linejoin:miter;stroke-opacity:1"
       d="m 88.301195,114.59834 c 0.132145,0.99914 2.337513,6.80067 2.566693,6.79424 2.821179,-0.0791 5.450647,0.39736 5.660952,0.0737 0.901164,-1.38688 2.916918,-2.98584 5.83524,-1.2606 2.40266,0.42164 1.52814,1.33083 2.478,2.9736 2.02271,0.90845 2.43643,-1.5426 6.80325,1.26153 1.75096,-0.21784 5.51863,2.79959 5.80337,2.6127 0.66761,-0.43818 -0.6856,-4.2034 0.52019,-5.89896 0.87278,-1.22729 2.27234,-1.22618 3.90609,-2.04658 2.11398,-1.06155 3.63607,-3.46135 3.60437,-5.13623 -0.0321,-1.69537 3.60377,-3.28072 3.19661,-4.9396 -1.0152,-1.90385 -1.49431,-4.19198 -5.54398,-3.14337 -0.60697,0.15141 1.18927,-2.0454 1.48907,-3.16428 -0.13651,-0.97425 0.69915,-1.91127 0.45054,-2.793381 -0.25829,-0.916424 -0.53292,-1.214847 -0.96934,-1.664758 -0.48619,-0.501223 0.77672,-3.111532 0.33857,-3.831905 -0.93135,-1.531252 -4.19739,-3.995484 -5.58676,-3.51426 -0.62505,0.216494 0.30876,1.454701 -0.0901,1.982402 -0.17182,0.227322 -0.60819,0.07015 -0.81099,0.270327 -0.52055,0.513833 -0.0468,2.356361 -0.72087,2.072513 -0.7486,-0.315211 -2.33556,-0.165892 -2.34284,-0.09011 -0.0683,0.711111 -0.0752,2.14247 -0.63077,2.793386 -0.32896,0.385421 -1.44552,0.153957 -2.16262,0.270327 -0.45354,0.0736 -0.89227,0.279939 -1.35164,0.270328 -1.26731,-0.02651 -2.46133,-1.194628 -3.69447,-0.901092 -1.57517,0.374954 -2.07655,3.217593 -3.69448,3.153823 -0.76401,-0.0301 -1.37591,-2.13814 -2.06799,-1.813118 -1.897423,0.891088 -4.825518,-0.227297 -6.492388,0.01093 -0.822411,0.117539 0.967777,1.800048 0.540655,2.512608 -0.689404,1.15012 -3.016022,0.0514 -3.874696,1.0813 -0.369222,0.44285 0.01395,1.1721 -0.157691,1.72254 -0.14113,0.45259 -0.703694,0.76494 -0.698347,1.239 0.0063,0.55887 0.802375,0.88542 0.856038,1.44175 0.104902,1.08752 -1.148892,2.68075 -1.103839,3.08624 0.04506,0.40549 1.588861,1.99426 0.630764,2.27526 -0.95383,0.27975 -3.002169,-0.0863 -2.883492,0.81098 z"
       id="path54"
       sodipodi:nodetypes="ssscccsssscccsssssssssassssssssssssss" />
    <path
       style="fill:none;stroke:#000000;stroke-width:0.264583px;stroke-linecap:butt;stroke-linejoin:miter;stroke-opacity:1"
       d="m 88.25659,114.15342 c 0,0 -3.560016,0.3346 -5.043593,-0.47172 -0.707271,-0.3844 -0.81002,-1.47503 -1.496578,-1.89531 -3.849862,-2.35669 -9.102621,-0.93433 -13.281954,-2.63979 -0.999034,-0.40768 -2.127099,-0.86241 -2.709976,-1.77044 -0.80904,-1.26036 0.278428,-3.28239 -0.668033,-4.44311 -1.277733,-1.56698 -5.479915,-0.0802 -5.693966,-2.09071 -0.10907,-1.024463 2.763094,-0.63318 2.612025,-1.652304 -0.738492,-4.981913 -1.178118,-9.39137 0.66335,-13.045098 0.401336,-0.796306 1.052123,3.568666 9.654569,1.887209 1.1808,-0.230802 1.276934,-2.132555 1.392108,-3.330175 0.09053,-0.941327 -0.968588,-1.918052 -0.575308,-2.778065 0.338018,-0.739168 1.627732,-0.548365 2.129515,-1.18777 0.601228,-0.766124 -0.01684,-2.25088 0.775777,-2.81673 0.540031,-0.38553 1.375175,0.380815 1.986748,0.123433 0.656452,-0.27627 0.694085,-1.497084 1.396048,-1.617509 1.421605,-0.243884 2.320983,2.01527 3.757409,2.146123 1.083169,0.09867 2.255637,-1.790243 3.079141,-1.079727 1.760626,1.519062 3.463065,4.429265 3.381801,4.771106 -0.346623,1.458081 0.904159,3.123955 1.755344,4.637363 0.596515,1.060605 1.390513,2.088391 1.58157,3.290144 0.102729,0.646169 -0.501915,1.337728 -0.259831,1.945579 0.153691,0.385904 0.776952,0.415242 0.968957,0.783585 0.333504,0.639794 -0.112477,1.487858 0.15194,2.159159 0.408404,1.036853 1.906396,1.502168 2.10267,2.599134 0.07616,0.42565 -0.415563,1.228865 -0.415563,1.228865"
       id="path7670"
       sodipodi:nodetypes="cssssssssssssssssssssssssc" />
    <path
       style="fill:none;stroke:#000000;stroke-width:0.264583px;stroke-linecap:butt;stroke-linejoin:miter;stroke-opacity:1"
       d="m 59.431038,101.02091 c -0.243582,-0.66655 -4.067029,3.08183 -5.297008,5.34664 -0.38531,0.70949 0.313683,1.6758 0.0056,2.42207 -0.200662,0.48606 -0.637411,0.89646 -1.115448,1.11555 -0.212604,0.0974 -0.498236,-0.0669 -0.699686,0.0519 -0.768868,0.45341 -0.677912,1.82138 -1.465696,2.24107 -0.909898,0.48474 -2.134834,-0.42042 -3.092646,-0.039 -0.803032,0.31979 -1.540099,1.00343 -1.860598,1.80618 -0.330783,0.82851 0.676791,1.98652 0.1084,2.6741 -0.39528,0.47817 -1.236383,0.41633 -1.840653,0.27578 -1.361245,-0.31661 -2.744059,-1.17922 -3.446698,-2.38733 -0.26743,-0.45982 0.147142,-1.14248 -0.141105,-1.58954 -0.456937,-0.70869 -1.796513,-0.50482 -2.202852,-1.24369 -0.51337,-0.93349 0.619694,-2.22904 0.163629,-3.19183 -0.501991,-1.05974 -2.344109,-1.02013 -2.832523,-2.08619 -0.462576,-1.00967 0.774888,-2.34029 0.255518,-3.32195 -0.285331,-0.5393 -1.989287,-0.4513 -1.587764,-0.9107 1.985902,-2.27216 3.163654,-5.949388 3.997568,-8.432858 0.549955,-1.637814 4.407292,-0.300266 4.787641,-1.985561 0.144287,-0.639323 -1.29135,-0.805362 -1.316651,-1.460277 -0.09265,-2.398166 2.127642,-4.914861 4.394401,-5.703269 0.854209,-0.297105 1.73858,0.796414 2.632284,0.657712 0.775764,-0.120397 1.219774,-1.262979 2.004382,-1.236607 2.691074,0.09045 5.652638,-0.134357 8.318027,-0.01495 1.375471,0.06162 3.595899,2.032479 3.595899,2.032479"
       id="path13505"
       sodipodi:nodetypes="csssssssssssssssssssssssc" />
    <path
       style="fill:none;stroke:#000000;stroke-width:0.264583px;stroke-linecap:butt;stroke-linejoin:miter;stroke-opacity:1"
       d="m 34.356016,102.40782 c 0,0 -2.123011,-1.47669 -2.813437,-2.532947 -0.788598,-1.206444 -0.250355,-3.185067 -1.360445,-4.104357 -1.019233,-0.84405 -2.733641,0.02971 -3.93521,-0.524811 -1.384489,-0.638933 -1.880709,-2.956541 -3.402145,-3.057909 -1.510773,-0.100658 -2.470885,1.753263 -3.751271,2.561458 -1.502905,0.948652 -3.602349,1.21647 -4.608362,2.681599 -0.385509,0.561444 0.192777,1.574449 -0.324728,2.017197 -0.661878,0.56627 -2.922186,0.59995 -3.481721,-0.414843 0,0 1.70197,-5.321642 -3.4141742,-5.560885 -2.8922243,-0.135247 5.7119182,-4.08552 7.1810672,-5.219328 1.041496,-0.803769 -0.983042,-8.885495 0.522673,-10.691899 0.803197,-0.963594 2.211085,-1.120775 3.158895,-1.942538 2.136235,-1.852143 1.839656,-4.785735 3.793005,-6.829839 1.011618,-1.058619 2.199134,-1.125434 3.060759,-1.872397 2.135122,-1.850989 2.914766,5.759853 4.907229,7.444972 3.398821,0.427898 4.52321,1.19051 6.165402,2.723859 0.899077,0.839487 0.842658,2.402142 1.718895,3.265442 0.774617,0.76318 2.590362,-0.535514 3.88722,0.114477 2.466215,1.236079 4.55384,4.169701 4.55384,4.169701"
       id="path15991"
       sodipodi:nodetypes="csssssssssssssscsssc" />
    <path
       style="fill:none;stroke:#000000;stroke-width:0.264583px;stroke-linecap:butt;stroke-linejoin:miter;stroke-opacity:1"
       d="m 22.229503,68.461162 c 0,0 -2.209025,-0.747261 -2.566822,-1.711344 -0.485898,-1.309251 9.54e-4,-3.556556 1.125622,-4.03548 2.139611,-0.911124 5.183406,-2.715182 5.448794,-2.335734 1.811962,2.590719 2.371745,3.556848 4.112871,4.69649 0.953865,0.624345 2.130378,1.192112 3.259586,1.035417 0.987823,-0.137075 2.019479,-0.772482 2.497088,-1.647966 0.254491,-0.466496 -0.340636,-1.202074 0.01812,-1.594093 0.301881,-0.329871 1.041446,-0.471313 1.334773,-0.133813 1.812043,2.084918 2.927885,4.103863 5.118256,5.112316 0.543279,0.250127 1.22027,0.325725 1.788808,0.140036 1.026339,-0.33521 2.556792,-2.685176 2.457458,-2.110102 -0.560441,3.244568 3.936344,6.039696 4.46424,8.987478 0.234409,1.308945 -2.383257,2.209834 -2.066653,3.538602 0.237748,0.997815 2.096852,0.768931 2.583426,1.671928 0.625316,1.160478 -0.03138,3.954562 -0.03138,3.954562"
       id="path19013"
       sodipodi:nodetypes="cassaaaasaassaac" />
    <path
       style="fill:none;stroke:#000000;stroke-width:0.264583px;stroke-linecap:butt;stroke-linejoin:miter;stroke-opacity:1"
       d="m 46.824055,65.876889 c 0,0 0.397153,-1.382536 0.903418,-1.842529 0.507056,-0.460712 1.757635,-0.05961 1.923428,-0.724348 0.200134,-0.802426 0.598401,-1.467425 0.672295,-2.122754 0.04819,-0.427348 -0.680012,-0.816407 -0.480467,-1.197367 0.377315,-0.72035 1.293682,-1.22881 1.931552,-2.110987 1.090884,-1.508698 2.879067,1.783096 4.479395,2.278103 0.70886,0.219262 1.625158,0.747421 2.207355,0.287415 0.252185,-0.199256 -0.221363,-0.958579 0.100041,-0.959007 1.070078,-0.0014 2.837073,0.205919 3.912479,0.844175 1.130551,0.670984 2.219847,2.186899 1.689785,3.361888 -0.359731,0.797416 -0.04927,1.929916 0.5515,2.565805 1.149593,1.216795 2.000034,-0.01851 2.676808,-0.570613 0.809304,-0.660214 2.537802,0.761411 2.61778,1.821433 0.04074,0.539954 -1.192478,0.576051 -1.179137,1.117375 0.03262,1.323646 0.7021,2.927497 1.634297,3.650319 1.620622,1.256623 6.198356,-0.06718 6.00253,2.601037 -0.06441,0.877573 -0.349182,2.999016 -0.328324,3.005312"
       id="path19015"
       sodipodi:nodetypes="cassssaasssssasssc" />
    <path
       style="fill:none;stroke:#000000;stroke-width:0.264583px;stroke-linecap:butt;stroke-linejoin:miter;stroke-opacity:1"
       d="m 20.835415,62.618685 c 0,0 -3.395698,-1.592279 -4.079788,-3.173573 -0.835033,-1.930204 1.978463,-4.938647 0.586463,-6.28194 -2.434518,-2.349331 -5.490247,-4.435948 -4.457018,-7.692623 0.552875,-1.742631 6.894415,-8.557881 8.522991,-9.303598 1.40651,-0.644034 -0.515507,-3.127804 -0.177789,-4.637439 0.337558,-1.508922 1.390579,-2.76292 2.135811,-4.117697 1.303713,-2.370054 -1.005549,-3.953972 -0.66098,-4.984194 0.402198,-1.202526 1.910081,-1.458075 3.170465,-1.826047 0.934569,-0.272849 2.223421,-0.390061 3.023224,0.116309 3.425991,2.169056 0.385477,9.253794 3.634915,10.465607 2.949317,1.099889 6.374844,-1.187775 9.611926,-1.965317 2.245941,-0.539471 3.688489,-9.44324 10.731239,-5.377832 1.787522,1.031842 -3.146755,4.753626 -0.27955,6.76896 3.463898,2.434745 5.115378,5.95814 8.548791,5.7726 0.80566,-0.04354 1.662777,-0.777637 1.848342,-1.562843 0.220965,-0.935 -1.647866,-1.836928 -1.135036,-2.649366 0.709496,-1.124 3.001581,0.735776 3.984411,-0.159102 1.513433,-1.377997 -1.167552,-6.638677 0.817444,-6.08572 3.457468,0.963141 2.961985,-0.602276 3.545576,-1.318441 2.768301,-3.397179 4.087609,8.901574 7.881738,8.450999 4.187824,-0.497329 8.704385,0.553871 11.611784,3.341145 1.591331,1.525582 0.531977,5.161543 2.095122,6.272804 1.470088,1.045105 4.099753,6.839952 3.139407,8.113451 -0.737072,0.977419 -3.335222,3.480695 -4.834722,5.0964 -0.411196,0.443062 -1.043731,-0.831034 -1.644502,-0.764252 -0.571746,0.06355 -0.811924,0.902642 -1.367121,1.053269 -1.078288,0.292544 -2.552941,-1.2308 -3.324981,-0.423185 -0.655295,0.685491 0.897774,1.948963 0.48588,2.80316 -0.35694,0.740232 -0.310566,1.322563 -0.09318,2.256322 0.176164,0.756693 -0.530708,1.609129 -1.204947,1.995159 -1.212245,0.694062 -2.990147,-0.662458 -4.190299,0.05231 -0.390574,0.232612 -1.237295,0.253593 -0.373747,1.114986 1.568588,1.564674 -1.836153,2.334674 0.973047,5.651359 0.913041,1.077983 -1.460517,-0.101756 -0.0075,3.67367 0.172362,0.447855 -0.452909,0.8854 -0.45673,1.365262 -0.0048,0.601319 0.545018,1.719715 0.545018,1.719715"
       id="path19017"
       sodipodi:nodetypes="casssassssssssaaaasssasssaaassassssac" />
    <path
       style="fill:none;stroke:#000000;stroke-width:0.264583px;stroke-linecap:butt;stroke-linejoin:miter;stroke-opacity:1"
       d="m 58.534558,35.664932 c 0,0 -0.697644,2.307615 0.08961,2.366699 2.078624,0.156003 6.564028,2.650798 7.023362,4.365053 1.128465,4.211491 2.122351,2.594633 2.752471,4.121889 0.423789,1.02716 0.02272,2.348536 0.642143,3.271018 0.606268,0.902892 2.209448,0.836156 2.725518,1.793469 0.249529,0.462877 -0.204342,1.093061 7.4e-5,1.577554 0.398414,0.944295 1.785419,1.209296 2.202374,2.145552 0.281065,0.631122 0.286292,1.411096 0.08181,2.07102 -0.121833,0.39319 -0.75241,0.578811 -0.737904,0.990188 0.01091,0.309416 0.382016,0.490171 0.606091,0.703823 1.482132,1.413186 4.840931,3.782814 4.840931,3.782814"
       id="path19019"
       sodipodi:nodetypes="cssaaaaaaaac" />
    <path
       style="fill:none;stroke:#000000;stroke-width:0.264583px;stroke-linecap:butt;stroke-linejoin:miter;stroke-opacity:1"
       d="m 94.960736,50.725347 c 0,0 2.342033,4.08767 4.294073,5.205116 1.088141,0.622905 2.779541,-0.240967 3.714111,0.594881 3.18753,2.850823 -0.48578,10.462964 2.70653,12.161184 1.96982,1.047891 3.1574,-3.230401 3.42826,-2.711569 1.5539,2.976454 4.17207,1.838553 5.16635,2.338121 0.92682,0.465673 -0.0822,2.31692 0.6607,3.040753 0.7788,0.758802 3.05745,-0.467877 3.20459,0.609462 0.38315,2.805339 1.80931,4.096192 2.35955,5.605592 0.23919,0.656122 4.50264,1.911888 4.05541,2.497402 -0.64009,0.837996 -0.0888,2.147828 0.93188,3.606678 0.46352,0.662499 -1.77581,1.859505 -1.88875,3.049971 -0.085,0.896067 1.08466,1.630068 0.96458,2.522112 -0.0829,0.615861 -0.91384,0.911138 -1.10268,1.503164 -0.25603,0.802638 0.0388,2.527151 0.0388,2.527151"
       id="path19038"
       sodipodi:nodetypes="cassssassssaaac" />
    <path
       style="fill:none;stroke:#000000;stroke-width:0.264583px;stroke-linecap:butt;stroke-linejoin:miter;stroke-opacity:1"
       d="m 109.10371,65.974959 c 0,0 -0.52955,-1.702037 0.0727,-1.914369 1.26147,-0.444748 4.77385,1.398963 5.98328,-0.298719 0.41572,-0.583543 -0.94088,-1.519648 -0.50598,-2.089037 0.39965,-0.523237 1.36495,0.192616 1.97441,-0.0565 0.41798,-0.170847 0.56907,-0.766802 0.99353,-0.920835 1.00144,-0.363412 2.18485,0.511395 3.19183,0.163629 0.72744,-0.251226 1.01981,-1.248408 1.74142,-1.515925 1.98146,-0.734574 3.24539,-2.599216 4.62563,-3.192039 1.1354,-0.487664 2.2742,1.896281 3.41935,1.431973 1.40906,-0.571313 0.34455,-3.729801 1.79225,-4.19458 0.81894,-0.262919 1.42881,1.70855 2.20559,1.339223 1.44028,-0.684794 3.54865,-2.114132 5.71274,-1.63024 2.11996,0.474023 -1.83726,-3.978409 -1.87094,-5.23712 -0.0204,-0.764202 2.15589,-0.255505 2.25447,-1.013595 0.33549,-2.579791 -0.26886,-4.03172 0.84175,-5.8311 0.44968,-0.728566 1.11316,-2.49131 1.73048,-1.89807 4.10857,3.948288 5.99459,1.128551 8.72043,-1.93682 1.24024,-1.394727 5.44373,1.846966 8.1959,2.791302 1.51151,0.518634 0.96601,3.153513 2.03649,4.339981 0.65909,0.730507 2.17455,0.603546 2.52951,1.521183 0.20622,0.533123 0.22626,0.915504 0.026,1.569292 -0.77357,2.524976 -6.0572,-4.913672 -7.25975,-2.637137 -0.72402,1.370631 -0.50922,3.49258 -0.68763,4.927883 -0.0839,0.674789 -0.89507,1.158816 -1.55582,1.319384 -0.98113,0.238424 -2.10085,-1.22415 -2.95164,-0.680445 -0.46012,0.294043 0.0941,1.267218 -0.33658,1.603206 -1.57431,1.228191 -6.50679,-1.157836 -5.73943,3.701048 0.18084,1.145046 -1.78367,2.246757 -0.94779,3.183339 0.55803,0.62526 1.69721,-0.770232 2.47301,-0.453232 1.88674,0.770939 3.4066,2.96373 3.52143,4.998657 0.0568,1.007415 -1.89607,1.748115 -1.45385,2.655067 0.50736,1.040563 1.92844,2.404358 1.05743,3.539342 -0.67201,0.875673 -2.50521,-0.102644 -3.23,0.729866 -0.74387,0.854415 -0.89161,3.289681 -0.28554,3.386548 1.86855,0.298642 3.07292,3.252021 2.79349,4.063344 -0.24628,0.715075 -0.98695,1.449897 -1.74324,1.452234 -1.09889,0.0034 -1.44866,-2.034316 -2.54591,-2.094399 -1.09479,-0.05995 -1.69007,2.068092 -2.75318,1.799849 -1.67515,-0.422672 -2.44975,-2.633862 -2.47337,-4.554719 -0.0216,-1.751902 -2.76826,-3.784198 -4.43546,-3.886329 -1.72845,-0.105883 -2.00911,0.649087 -2.59781,1.44642 -0.85674,1.160364 0.39554,3.596187 -0.89876,4.232754 -0.773,0.380179 -1.48489,-0.950796 -2.32994,-1.118034 -0.66087,-0.130789 -1.45709,-0.258987 -2.01783,0.114421 -0.81154,0.540428 -1.02018,1.690621 -1.27878,2.630723 -0.17105,0.62183 0.53452,1.819518 -0.16313,1.927894 -0.6619,0.102824 -2.39632,0.257155 -2.3844,0.376016"
       id="path19040"
       sodipodi:nodetypes="cssaaaassaassssssssassssaasssaassassaaassaaaaasc" />
    <path
       style="fill:none;stroke:#000000;stroke-width:0.264583px;stroke-linecap:butt;stroke-linejoin:miter;stroke-opacity:1"
       d="m 164.74855,45.833299 c 0,0 3.8356,-0.0891 5.73774,2.258026 3.3005,-0.01951 3.67856,1.00532 4.08907,2.56018 0.30828,1.167651 0.2568,4.518398 0.2568,4.518398 -2.58226,2.948601 -3.72749,4.480787 -4.18243,5.831567 -0.45494,1.35078 -0.2196,2.520155 -0.0407,4.743132 0.1678,2.085051 -0.94957,4.809993 -2.9004,5.564897 -0.32,0.12383 -0.85379,-0.678953 -0.9663,-0.354804 -0.30147,0.868527 -1.60847,1.296647 -1.11522,2.292606 1.32183,2.668995 -0.15862,3.14335 0.64995,4.391178 0.62005,0.956897 -0.28617,1.676331 -0.58312,2.631787 -0.29696,0.955455 -0.88797,2.085989 -1.63333,2.647673 -0.70372,0.530304 1.16297,0.978415 1.09461,1.854114 -0.0684,0.8757 -1.10701,1.550541 -1.22796,2.419371 -0.12095,0.86883 -0.0204,1.230401 -0.22696,2.089593 -0.20657,0.859191 0.0782,1.76496 -0.24707,2.611745 -0.35104,0.913972 -2.0319,0.519659 -2.64038,1.286679 -0.4226,0.532707 0.0574,1.539724 -0.45302,1.988995 -0.70311,0.618881 -1.90324,0.551818 -2.79693,0.271274 -1.80067,-0.565264 -2.98963,0.506181 -4.31204,-3.6693 -1.28056,-4.043323 -2.83187,-7.012255 -3.07903,-14.030949"
       id="path19042"
       sodipodi:nodetypes="ccssssasssssssssaaasc" />
    <path
       style="fill:none;stroke:#000000;stroke-width:0.264583px;stroke-linecap:butt;stroke-linejoin:miter;stroke-opacity:1"
       d="m 174.57536,50.651505 c 0,0 4.94241,-0.522603 5.96335,1.231683 0.51022,0.87671 -1.1157,1.896739 -0.93703,2.895248 0.13764,0.769229 1.1711,1.111934 1.45052,1.841718 0.60379,1.57699 -0.45475,3.557605 0.32494,5.055447 0.49097,0.943173 1.96567,1.068671 2.49023,1.993586 1.08131,1.906624 -0.38908,4.736461 0.89215,6.514912 0.47761,0.662954 1.77347,0.386506 2.19829,1.084461 0.92864,1.525698 -1.82919,5.810904 -0.10165,5.357315 1.50534,-0.395249 6.64622,2.734634 8.4966,5.111247 0.80707,1.036592 -2.22309,2.001172 -2.13622,3.312025 0.11111,1.676612 2.93592,2.191287 3.26739,3.838558 0.31862,1.583425 -1.6416,2.930219 -1.46916,4.617395 0.13426,1.313734 2.10563,0.42755 2.96429,1.504234 0.85866,1.076684 -0.006,4.46459 0.93028,5.396026 3.71247,3.69384 -0.11201,3.04247 -0.15073,4.56421 -0.0698,2.7419 2.12978,6.69762 -0.14701,8.22704 -1.09038,0.73246 -2.36244,-1.49482 -3.67412,-1.42468 -1.22369,0.0654 -2.0459,1.79741 -3.26635,1.68705 -2.40509,-0.21748 -3.43546,-3.6911 -5.73603,-4.42534 -1.90205,-0.60705 -4.7079,1.76965 -5.98511,0.23503 -0.60303,-0.72457 1.53156,-2.51024 0.62222,-2.75875 -1.15728,-0.31626 -2.95123,-1.66376 -3.63412,-2.25449 -0.47759,-0.41313 -0.17362,1.32322 -0.58587,1.80157 -0.62656,0.72702 -1.77122,1.80674 -2.57669,1.28486 -1.48667,-0.96325 -3.32268,-3.11694 -4.83524,-4.1324 -0.3682,-0.24719 -1.84369,-1.74874 -1.67973,-2.75927 0.39579,-2.439262 -2.22303,-2.716387 -3.11015,-4.24286 -0.73202,-1.25958 -0.69716,-4.314568 -0.69716,-4.314568"
       id="path19044"
       sodipodi:nodetypes="caaaaaaassaasssaaaaaassassssc" />
    <path
       style="fill:none;stroke:#000000;stroke-width:0.264583px;stroke-linecap:butt;stroke-linejoin:miter;stroke-opacity:1"
       d="m 128.67596,109.03214 c 0.4247,-0.81204 3.82861,0.62642 4.81257,2.71356 0.37,0.78484 1.58564,0.98563 2.4476,0.8861 1.80306,-0.20819 2.55118,-2.42797 3.84857,-3.61601 0.7382,-0.67597 1.96034,1.17656 2.8916,0.80965 1.34284,-0.52907 1.03205,-2.9276 2.25267,-3.69781 1.86468,-1.1766 2.35465,-3.75253 3.21156,-5.82878 0.36561,-0.88586 1.95533,1.39689 2.89707,1.00072 1.2958,-0.54511 0.51646,-3.246238 1.80318,-3.812432 0.90371,-0.397655 1.90164,1.211965 2.82974,0.87516 1.09097,-0.39591 1.89239,-2.922588 1.89239,-2.922588"
       id="path19046"
       sodipodi:nodetypes="csssassaaac" />
    <path
       style="fill:none;stroke:#000000;stroke-width:0.264583px;stroke-linecap:butt;stroke-linejoin:miter;stroke-opacity:1"
       d="m 117.44917,127.05682 c 0,0 1.82155,2.42969 1.71892,3.82319 -0.12495,1.69657 -2.51725,2.61298 -2.75209,4.29785 -0.23839,1.7103 1.53487,3.234 1.49415,4.96035 -0.0433,1.83466 -1.88477,3.35635 -1.83466,5.19084 0.0206,0.75557 0.21147,1.72467 0.87123,2.0935 0.40975,0.22906 0.97665,5.8e-4 1.39097,-0.2201 1.19039,-0.63404 1.57415,-2.3115 2.75478,-2.96352 0.6657,-0.36763 1.52339,-0.1745 2.2415,-0.42473 0.71037,-0.24753 1.26725,-1.22626 1.99828,-1.04879 1.48554,0.36063 1.2356,3.13288 2.63158,3.7559 1.50114,0.66995 3.26093,-0.42164 4.89605,-0.59085 6.52368,-0.67512 2.08114,4.38767 3.94794,4.07881 1.0801,-0.1787 0.31417,-2.8504 1.40242,-2.96989 2.54778,-0.27975 0.70463,-1.93787 1.50666,-2.47706 0.4777,-0.32116 1.74866,0.29979 1.70494,-0.27416 -0.11382,-1.49405 -3.01873,-3.86887 -2.51459,-5.96783 0.59159,-2.46304 5.09507,-2.46864 5.80944,-4.89892 2.75513,-9.37297 7.07798,-5.45551 7.22339,-9.04104 0.0894,-2.20424 2.24039,-4.62197 1.12045,-6.52259 -0.96287,-1.63406 -4.14355,-0.42973 -5.37227,-1.87454 -1.40623,-1.65354 -0.29732,-4.40857 -1.13007,-6.41311 -0.44904,-1.08089 -2.02033,-2.87193 -2.02033,-2.87193"
       id="path19048"
       sodipodi:nodetypes="caaaaaaaaaasasasassaaac" />
    <path
       style="fill:none;stroke:#000000;stroke-width:0.264583px;stroke-linecap:butt;stroke-linejoin:miter;stroke-opacity:1"
       d="m 152.9217,120.88165 c 0,0 1.1782,-0.11215 1.71524,0.0861 1.10132,0.40656 1.60855,2.14448 2.78849,2.15131 0.21709,10e-4 0.86374,-0.5112 1.03058,-0.65865 0.62988,-0.55668 4.80772,-0.97591 5.61927,-0.86131 4.92611,0.6956 4.84157,0.067 9.40498,2.61552 0.72318,0.40388 0.28593,1.87018 1.01149,2.26978 0.79466,0.43765 1.87965,-0.79413 2.69315,-0.39259 0.5391,0.2661 0.31153,1.37618 0.87892,1.57494 1.673,0.58607 3.15301,-2.10899 4.92301,-2.01142 0.74587,0.0411 1.22396,1.01351 1.96878,1.07049 1.87522,0.14346 4.0873,-0.47997 5.30904,-1.90979 0.76931,-0.90034 -0.34432,-2.87248 0.66637,-3.4897 1.07816,-0.65843 2.61203,1.80718 3.6364,1.06784 2.8728,-2.07344 0.37006,-10.62227 0.37006,-10.62227"
       id="path19050"
       sodipodi:nodetypes="cassssaaaaaaaac" />
    <path
       style="fill:none;stroke:#000000;stroke-width:0.264583px;stroke-linecap:butt;stroke-linejoin:miter;stroke-opacity:1"
       d="m 151.91051,124.92209 c 0,0 1.58871,3.30697 3.35352,5.35787 0.62054,0.72113 -0.0361,2.11611 0.44664,3.00711 0.48082,0.88747 2.40379,1.00859 2.26606,2.0085 -0.0899,0.65259 -1.39389,0.32721 -1.77825,0.86221 -1.01997,1.41971 -1.59083,3.72115 -0.66242,5.20236 0.969,1.54599 0.79455,-0.79396 5.18825,1.74459 1.79452,1.03682 3.29733,-2.47648 6.21499,-0.17786 0.54125,0.42641 1.23632,-0.88957 1.91593,-0.776 1.02733,0.17168 2.34246,1.0095 2.35743,2.05097 0.03,2.08814 0.29704,4.77764 0.0312,7.39108 -0.13229,1.30057 -1.23721,1.29453 -2.80627,2.73963 -0.69164,0.637 -1.61809,-1.21113 -2.55811,-1.18884 -0.68491,0.0162 -1.13773,0.89972 -1.82071,0.95357 -1.03738,0.0818 -2.0015,-0.58793 -2.95828,-0.9971 -1.15613,-0.49442 -2.2063,-1.20951 -3.34048,-1.75239 -0.95749,-0.45831 -1.93812,-1.66961 -2.92099,-1.2686 -1.27634,0.52075 -0.2298,3.46204 -1.55807,3.83073 -1.44189,0.40022 -2.13444,-2.35614 -3.59273,-2.69172 -1.54231,-0.35491 -3.09919,1.15026 -4.66185,0.89966 -0.81125,-0.1301 -1.3312,-1.19369 -2.15279,-1.20043 -0.70519,-0.006 -1.16593,0.90292 -1.86445,0.99989 -1.41067,0.19584 -3.26473,0.17975 -4.17298,-0.91726 -0.2107,-0.25449 -0.0284,-0.99079 -0.0284,-0.99079"
       id="path19052"
       sodipodi:nodetypes="csaaaassasssaaaaaaaaaaac" />
    <path
       style="fill:none;stroke:#000000;stroke-width:0.264583px;stroke-linecap:butt;stroke-linejoin:miter;stroke-opacity:1"
       d="m 184.95561,126.72582 c 0,0 2.25429,2.63702 3.81085,3.22637 2.25004,0.85191 5.33574,-1.34681 7.2161,0.15407 0.79316,0.63309 0.32335,2.02748 0.73809,2.9537 0.2622,0.58556 1.11657,0.951 1.08224,1.59166 -0.0541,1.0088 -1.16646,1.08061 -1.96219,2.30981 -0.36141,0.55828 -1.44122,-0.11462 -1.97515,0.28189 -0.62009,0.46049 -1.2228,1.36924 -0.97654,2.10131 0.39347,1.16969 2.60072,0.69643 3.27228,1.73181 0.53569,0.82589 -0.3095,2.10255 0.19702,2.94664 0.76942,1.28221 3.14993,1.02769 3.80889,2.37002 0.71417,1.4548 0.66545,3.70316 -0.4926,4.83691 -1.24651,1.22036 -3.68694,1.25855 -5.21646,0.41973 -2.38224,-1.30647 -3.958,-2.54154 -6.27182,-4.17007 -0.60021,-0.42244 0.0992,-1.83749 -0.57914,-2.12439 -3.34097,-1.41305 -6.65117,-0.86862 -9.97877,-0.61588 -1.15074,0.0874 -1.69132,1.68146 -2.78056,2.06279 -1.07022,0.37467 -3.39962,0.11982 -3.39962,0.11982"
       id="path19054"
       sodipodi:nodetypes="caaaasaaaaaassssac" />
    <path
       style="fill:none;stroke:#000000;stroke-width:0.264583px;stroke-linecap:butt;stroke-linejoin:miter;stroke-opacity:1"
       d="m 36.600156,31.134724 c 0.467101,0.178192 1.95775,-0.09553 2.71635,0.418066 1.086808,0.73581 0.895454,2.684055 2.001375,3.390812 0.593325,0.379174 1.489013,-0.136352 2.101916,0.210286 2.00103,1.131718 3.295546,3.38317 4.124613,5.52736 0.437015,1.130238 -0.108851,2.497367 0.351451,3.618323 0.468955,1.142028 2.169423,1.650882 2.335909,2.874168 0.156732,1.151622 -0.718605,2.250623 -1.395974,3.195064 -0.42983,0.599303 -2.123182,0.935168 -1.636352,1.489167 2.158551,2.456369 1.622067,3.184157 2.454351,4.256773 0.576694,0.743221 2.393019,1.496009 2.393019,1.496009"
       id="path25207"
       sodipodi:nodetypes="caaaaaaassc" />
  </g>
  <path
     style="fill:#ffffff;stroke-width:0.0901091"
     d="m 36.225131,47.48371 c -1.148352,-0.454763 -2.044782,-1.267838 -3.858995,-3.500175 -0.744858,-0.916528 -1.431039,-1.707873 -1.524847,-1.75854 -0.424945,-0.229529 -1.28547,0.0145 -1.470774,0.417084 -0.07044,0.153053 -0.07232,0.376007 -0.0065,0.774168 0.07156,0.433017 0.06578,0.611386 -0.02561,0.790427 -0.206722,0.404902 -0.790157,0.903554 -1.395336,1.192567 -0.509717,0.243424 -0.681474,0.279537 -1.30765,0.274949 -0.907756,-0.0066 -1.616358,-0.280463 -2.850565,-1.101489 -1.070859,-0.712362 -1.827147,-1.523384 -3.0671,-3.289075 -0.737736,-1.050536 -0.966693,-1.315831 -1.155511,-1.338911 -0.303585,-0.03711 -1.192812,0.332322 -3.407767,1.415759 l -1.786688,0.87395 -0.88903,-0.493082 c -1.131726,-0.62769 -2.368493,-1.561905 -2.77074,-2.092931 -0.630221,-0.831985 -0.621524,-1.363065 0.05502,-3.35956 0.243287,-0.71795 0.487228,-1.543069 0.542091,-1.8336 0.194291,-1.028877 0.05699,-1.272024 -1.5635877,-2.768986 C 7.0489292,29.199063 6.332002,28.092316 6.3498291,26.45038 c 0.012676,-1.167582 0.3762754,-1.844563 2.135079,-3.975295 2.1224649,-2.571295 4.9580649,-5.398601 6.2552169,-6.23692 0.334662,-0.216284 0.649896,-0.469924 0.700517,-0.563644 0.181951,-0.33686 0.09588,-1.120643 -0.260942,-2.376284 -0.395971,-1.393391 -0.415983,-1.619528 -0.205287,-2.31978 0.192595,-0.640093 0.456527,-1.1532155 1.284373,-2.497013 0.90235,-1.4647333 1.105799,-1.9661532 1.111476,-2.7393495 C 17.375462,5.0374458 17.179315,4.373026 16.655881,3.321919 16.461855,2.9322981 16.303362,2.5471775 16.303674,2.4660957 c 10e-4,-0.2685352 0.390158,-0.8398788 0.718108,-1.0543784 0.575852,-0.3766428 2.44171,-0.95559719 3.496762,-1.08500543 1.721165,-0.21111024 2.996962,1.02700983 3.35022,3.25127833 0.04785,0.3012641 0.125077,1.3183388 0.171622,2.260166 0.144225,2.9182798 0.302689,3.731437 0.88514,4.5420258 0.64816,0.902038 2.383517,1.247695 4.320246,0.860533 0.599133,-0.119769 0.992767,-0.139533 1.802546,-0.0905 0.569812,0.0345 1.157488,0.110427 1.305946,0.168714 0.558549,0.219305 0.909928,0.739601 1.289833,1.909876 0.244957,0.754571 0.637365,1.381803 1.015055,1.62247 0.255569,0.162851 0.394142,0.181933 1.060093,0.145992 0.978011,-0.05278 1.286029,0.08928 2.312329,1.066448 1.048427,0.998244 1.944071,2.380494 2.672384,4.124301 0.222057,0.531667 0.248018,0.718754 0.293539,2.115312 0.06353,1.949114 0.128091,2.103938 1.307071,3.134572 1.039612,0.908801 1.249646,1.256676 1.183177,1.95966 -0.05523,0.584142 -0.336074,1.188588 -0.988885,2.128356 -0.349899,0.503701 -0.557274,0.701006 -0.990444,0.942348 -0.792814,0.441714 -1.07546,0.68942 -1.076436,0.943364 -5.29e-4,0.131485 0.213103,0.489987 0.535911,0.899427 0.686694,0.870985 0.940072,1.312122 1.355209,2.359462 0.185089,0.466958 0.421335,0.987425 0.524991,1.156594 0.224653,0.366639 0.792157,0.800275 1.69181,1.292723 l 0.659243,0.360854 -0.827071,0.809104 c -1.384086,1.35401 -1.472158,1.550519 -0.995093,2.220238 l 0.275188,0.386318 -0.381749,1.13081 c -0.428889,1.270453 -0.420682,1.262402 -1.394682,1.367859 -0.460251,0.04983 -0.584835,0.105537 -0.86323,0.385974 -0.178945,0.180256 -0.445106,0.609561 -0.591473,0.954006 -0.221575,0.521443 -0.429758,0.79452 -1.243745,1.631439 -0.537697,0.552842 -1.113912,1.069197 -1.280481,1.147456 -0.394734,0.185459 -1.162113,0.171603 -1.671656,-0.03018 z"
     id="path2123" />
  <path
     style="fill:#ffffff;stroke-width:0.0901091"
     d="m 70.428263,57.53295 c -0.321839,-0.07897 -0.59648,-0.151035 -0.610312,-0.160142 -0.01384,-0.0091 0.03881,-0.517382 0.116978,-1.129498 0.256442,-2.008052 0.191497,-2.504638 -0.392314,-2.999729 -0.394353,-0.334423 -1.010409,-0.49312 -2.559439,-0.659313 -1.749779,-0.187735 -2.472216,-0.356632 -2.918042,-0.682209 -0.410763,-0.299967 -0.832366,-0.883312 -1.127736,-1.56037 -0.193675,-0.443952 -0.495099,-1.606828 -0.493951,-1.905635 2.65e-4,-0.07486 0.193554,-0.245306 0.429477,-0.378772 0.622385,-0.352102 0.745247,-0.478602 0.746361,-0.76848 0.0036,-0.93213 -1.28071,-2.1507 -2.27071,-2.154505 -0.348199,-0.0013 -0.458454,0.05558 -0.973608,0.502582 -0.992177,0.860925 -1.474026,0.91821 -2.060567,0.244972 -0.613445,-0.704112 -0.769237,-1.4976 -0.492059,-2.506183 0.136975,-0.498428 0.145124,-0.652278 0.05404,-1.020472 -0.344125,-1.391113 -1.597594,-2.524355 -3.280257,-2.965635 -0.660357,-0.173178 -2.499105,-0.37437 -2.705602,-0.296037 -0.120428,0.04568 -0.145116,0.152453 -0.122002,0.527624 0.02705,0.439042 0.01315,0.475874 -0.208931,0.553318 -0.180769,0.06304 -0.429509,0.02299 -1.035624,-0.166733 -1.051105,-0.329014 -1.354556,-0.516972 -2.510764,-1.555175 -1.358802,-1.220116 -1.531016,-1.324206 -2.232945,-1.349635 -0.498766,-0.01807 -0.674778,-0.07597 -1.28093,-0.421375 -1.013503,-0.577525 -1.387004,-0.986065 -1.734273,-1.896978 -0.434459,-1.139616 -0.747217,-1.715085 -1.402932,-2.581362 l -0.59554,-0.786778 0.230593,-0.185778 c 0.126822,-0.102176 0.477594,-0.323138 0.779491,-0.491027 0.437542,-0.243321 0.64158,-0.438224 1.00574,-0.960691 1.380236,-1.980269 1.439354,-3.089095 0.223927,-4.199985 -1.083003,-0.989854 -1.423416,-1.378887 -1.533374,-1.752378 -0.06121,-0.207902 -0.108326,-0.882242 -0.107061,-1.532279 0.0028,-1.446067 -0.05592,-1.703676 -0.697055,-3.057316 -0.915604,-1.93312 -2.068232,-3.403425 -3.305167,-4.216111 l -0.579774,-0.380921 -0.904266,0.0149 -0.904269,0.0149 -0.335418,-0.355322 c -0.229431,-0.243046 -0.422854,-0.599903 -0.61214,-1.129369 -0.678222,-1.89712 -0.978969,-2.183992 -2.476775,-2.36252 l -0.53454,-0.06371 1.43792,-0.529577 c 0.790856,-0.2912787 1.878294,-0.667593 2.41653,-0.8362622 0.538237,-0.1686692 1.112362,-0.3886279 1.275837,-0.4887939 0.365564,-0.2239936 0.761153,-0.7347479 1.914231,-2.4715046 2.469851,-3.7200699 4.375164,-4.4709212 7.541155,-2.9718434 0.999413,0.473216 1.087871,0.6362377 0.787288,1.450925 -0.113823,0.3085092 -0.401732,0.9453967 -0.639796,1.4153047 -0.748668,1.4777825 -0.918385,2.2071911 -0.694497,2.9847777 0.163753,0.5687325 0.404503,0.8507917 1.313235,1.5385767 0.370774,0.280622 1.504895,1.297982 2.52027,2.260798 1.015376,0.962813 2.078543,1.911956 2.362597,2.109205 0.418574,0.290664 0.50573,0.393452 0.459846,0.542338 -0.03114,0.101036 -0.08142,0.537067 -0.111747,0.968957 -0.07069,1.006705 0.02727,1.190903 0.680768,1.280149 1.690555,0.230876 4.673862,1.840693 5.960551,3.216363 0.511911,0.547309 0.589878,0.684003 0.82336,1.443532 0.295389,0.960927 0.680186,1.823421 1.005448,2.253644 0.12346,0.163301 0.443196,0.421463 0.710523,0.573691 0.888788,0.506113 1.00063,0.757825 1.181298,2.658615 0.140182,1.474854 0.41147,1.834327 1.840754,2.439104 0.433594,0.183467 0.909058,0.455213 1.056587,0.603882 0.268039,0.270108 0.26819,0.270883 0.205955,1.055153 l -0.06228,0.784847 0.291504,0.334592 c 0.16033,0.184026 0.625359,0.577562 1.033405,0.874525 0.942734,0.686096 1.078124,0.937882 1.074052,1.997382 l -0.003,0.776462 -0.384556,0.413991 c -0.490847,0.528415 -0.515617,0.854985 -0.09492,1.251508 0.659122,0.62125 2.084621,1.778836 3.464812,2.813621 0.80655,0.604706 1.412827,1.115645 1.347284,1.135423 -0.228944,0.06908 -0.435612,0.311081 -0.43638,0.510982 -5.29e-4,0.11082 0.161986,0.399145 0.360919,0.640717 0.512736,0.622647 0.524885,0.751208 0.164853,1.744634 -0.529595,1.461291 -0.396618,2.323872 0.553318,3.589194 0.235194,0.31328 0.427482,0.606576 0.42731,0.651767 -1.74e-4,0.04519 -0.07628,0.122449 -0.169135,0.171683 -0.516038,0.273626 -0.590811,1.343337 -0.183179,2.620518 l 0.216525,0.678404 -0.258175,0.537917 c -0.293929,0.61241 -0.285814,0.911807 0.04773,1.760744 l 0.197045,0.501528 -0.209383,0.156678 c -0.11516,0.08617 -0.314375,0.361913 -0.442701,0.612757 -0.278241,0.543885 -0.60212,0.88623 -0.824492,0.871498 -0.08896,-0.0059 -0.425071,-0.07533 -0.74691,-0.154297 z"
     id="path2162" />
  <path
     style="fill:#ffffff;stroke-width:0.0901091"
     d="m 74.090911,42.377056 c -0.708768,-0.15281 -0.945631,-0.168809 -1.382289,-0.09336 l -0.526955,0.09105 -0.822719,-0.604602 c -2.169623,-1.594414 -4.370607,-3.423952 -4.370192,-3.632661 1.75e-4,-0.0688 0.159978,-0.29704 0.355203,-0.507209 0.398516,-0.429016 0.50832,-0.853956 0.448062,-1.733997 -0.05821,-0.850101 -0.331113,-1.288155 -1.193554,-1.915816 -0.41184,-0.299728 -0.857068,-0.674632 -0.989391,-0.833123 -0.231997,-0.277873 -0.238287,-0.314571 -0.176133,-1.027599 l 0.06446,-0.739434 -0.321329,-0.358433 C 64.952491,30.772471 64.615282,30.557973 64.06755,30.316734 62.574292,29.659057 62.403588,29.410118 62.265216,27.688421 62.139412,26.123112 61.94915,25.741064 61.036647,25.221446 60.290562,24.796592 59.97715,24.286959 59.435093,22.6172 c -0.297625,-0.916802 -0.382252,-1.075655 -0.83787,-1.572731 -1.27382,-1.389718 -3.755321,-2.793984 -5.812731,-3.289387 -0.769554,-0.185303 -0.81253,-0.208412 -0.856779,-0.460745 -0.04237,-0.24162 0.06919,-1.392883 0.14197,-1.465109 0.0168,-0.01667 0.308298,0.07108 0.647769,0.195011 1.681824,0.613984 2.993681,0.300789 3.692731,-0.88161 0.369207,-0.624488 0.285607,-1.038336 -0.386231,-1.91198 -0.656622,-0.853861 -0.721458,-1.02838 -0.473472,-1.274466 0.243076,-0.241215 0.710396,-0.237305 1.656575,0.01386 0.945092,0.250875 1.740236,0.274762 2.067552,0.06211 0.133824,-0.08694 0.328229,-0.322953 0.432014,-0.524473 0.302961,-0.588256 0.318043,-1.3647 0.06097,-3.1387396 -0.378529,-2.6121653 -0.366914,-2.6472245 0.79095,-2.3874888 0.927587,0.2080794 1.819871,0.2208339 2.183345,0.031209 0.372602,-0.194387 0.542131,-0.3983461 0.807804,-0.9718651 0.258982,-0.5590773 0.368321,-0.7065582 0.683599,-0.9220716 0.368535,-0.2519201 0.62734,-0.1903132 1.044763,0.2486988 0.496956,0.5226595 0.827992,1.1331091 1.949638,3.5952419 1.387789,3.0463474 2.120143,4.1715374 3.088012,4.7444324 l 0.419066,0.248049 2.523035,0.01101 c 2.294231,0.01003 2.608765,0.03012 3.468378,0.221647 2.059752,0.45893 3.942059,1.272373 5.296447,2.288876 1.460027,1.09579 1.707425,1.572127 1.982788,3.81762 0.09867,0.804611 0.265795,1.747059 0.371396,2.09433 0.167685,0.551429 0.267234,0.70589 0.785981,1.219504 0.940123,0.930823 1.71422,2.202448 2.446793,4.0194 0.507722,1.259263 0.770369,2.30456 0.767485,3.054492 -0.0021,0.571762 -0.01482,0.603502 -0.442368,1.113269 -0.366389,0.436838 -2.388354,2.551692 -4.168174,4.359672 l -0.423979,0.430683 -0.453247,-0.363736 c -0.249288,-0.200056 -0.562282,-0.405672 -0.695542,-0.456924 -0.340066,-0.130792 -0.768903,0.06487 -1.136274,0.518427 -0.509212,0.628684 -0.762688,0.635524 -2.298885,0.06201 -0.820545,-0.306334 -1.211408,-0.308644 -1.569974,-0.0093 -0.394558,0.329417 -0.375447,0.724549 0.08503,1.757778 l 0.365868,0.820963 -0.203496,0.62462 c -0.160612,0.493003 -0.191151,0.733203 -0.14492,1.139902 0.173072,1.522547 0.176191,1.47497 -0.126077,1.922026 -0.154387,0.228343 -0.448214,0.530301 -0.652946,0.67102 -0.480997,0.3306 -1.224034,0.362699 -2.421168,0.104592 z"
     id="path2201" />
  <path
     style="fill:#ffffff;stroke-width:0.0901091"
     d="m 96.458193,80.074188 c -0.125553,-0.136774 -0.390014,-0.472324 -0.587687,-0.745668 -0.658948,-0.911182 -0.661517,-0.91201 -1.869858,-0.601638 -0.297656,0.07645 -0.823402,0.138557 -1.168323,0.138004 -0.547307,-7.94e-4 -2.423885,-0.191172 -3.263001,-0.330891 l -0.286827,-0.04776 0.130506,-0.309002 c 0.317474,-0.751684 0.10913,-1.250248 -0.917059,-2.19452 -1.06267,-0.977839 -1.103471,-1.059169 -1.10072,-2.194107 0.0027,-1.097759 -0.07579,-1.303883 -0.609293,-1.600859 -0.5242,-0.291799 -0.58343,-0.494086 -0.365056,-1.246754 0.0979,-0.33741 0.177604,-0.735251 0.177131,-0.884092 -0.0016,-0.535181 -0.442688,-1.517518 -1.448562,-3.226803 -1.805541,-3.068156 -1.948252,-3.397842 -1.94405,-4.491071 0.0029,-0.750573 -0.1191,-1.032801 -1.059024,-2.45019 -0.742968,-1.120381 -1.85938,-2.430598 -2.350082,-2.758049 -0.491776,-0.328168 -0.823987,-0.254529 -1.835407,0.406834 -0.453503,0.296543 -0.950812,0.563915 -1.105132,0.594164 -0.430851,0.08445 -0.963026,-0.210581 -1.925561,-1.067498 -0.783688,-0.697696 -1.393346,-1.069962 -1.754545,-1.071348 -0.154403,-5.29e-4 -0.418211,-0.545481 -0.577897,-1.193631 -0.09826,-0.398841 -0.08931,-0.452284 0.141017,-0.841867 0.293606,-0.496615 0.304644,-0.804167 0.05475,-1.525312 -0.383585,-1.106948 -0.328051,-1.939155 0.150138,-2.249856 0.336299,-0.218508 0.282771,-0.562554 -0.181234,-1.16487 -0.957106,-1.242388 -1.105149,-2.078604 -0.595839,-3.365545 0.42441,-1.072412 0.400574,-1.307462 -0.209796,-2.06888 -0.166113,-0.207219 -0.301937,-0.399669 -0.301829,-0.427662 2.65e-4,-0.100058 0.894546,-0.497525 1.233673,-0.548386 0.202446,-0.03036 0.7371,0.02662 1.290984,0.137597 1.13007,0.226419 1.691645,0.240871 2.142792,0.05514 0.424735,-0.174857 1.063741,-0.786042 1.304311,-1.247523 0.190928,-0.366258 0.192309,-0.47579 0.02408,-1.909877 -0.04128,-0.351922 -0.0057,-0.608091 0.147545,-1.06281 0.195889,-0.581183 0.19744,-0.613052 0.05176,-1.064302 -0.08259,-0.255849 -0.247237,-0.658566 -0.365871,-0.894927 -0.257863,-0.513754 -0.27201,-0.806296 -0.04869,-1.006842 0.244522,-0.219586 0.560321,-0.182325 1.456531,0.171852 0.595421,0.23531 0.944089,0.319013 1.335085,0.320516 0.526095,0.0021 0.532416,-0.0011 1.076984,-0.536519 0.301281,-0.296204 0.58893,-0.538396 0.639225,-0.538203 0.05029,1.94e-4 0.266382,0.141687 0.480203,0.314431 0.544512,0.439907 0.866455,0.609315 1.049189,0.552088 0.153591,-0.0481 4.492554,-4.485579 4.769583,-4.877874 0.137467,-0.194665 0.155504,-0.176091 0.837382,0.862465 1.336794,2.036037 2.678475,3.527382 3.56933,3.967487 0.43684,0.215813 0.563843,0.233964 1.625457,0.232305 0.633376,-0.0011 1.313619,0.04222 1.511655,0.09602 0.728522,0.197924 1.434264,1.276543 1.711547,2.615842 0.108752,0.525267 0.130178,1.120027 0.100354,2.785317 -0.06171,3.44515 -0.0403,4.324527 0.12352,5.074457 0.257445,1.178509 0.998485,2.015746 1.87456,2.117904 0.820648,0.0957 1.611258,-0.546756 2.382108,-1.935704 0.4985,-0.898237 0.45326,-0.883629 0.88895,-0.287007 0.72939,0.998828 1.66566,1.43792 3.2359,1.517573 1.85803,0.09425 1.84693,0.08474 1.84119,1.576798 -0.007,1.778346 0.1744,1.945663 2.01676,1.861851 0.64636,-0.0294 1.22822,-0.01857 1.29302,0.02408 0.0648,0.04265 0.17871,0.377982 0.25311,0.745181 0.26186,1.292355 0.53711,1.945423 1.63456,3.878167 0.34673,0.610624 0.63021,1.161706 0.62997,1.224627 -7.9e-4,0.215183 0.6101,0.583697 2.17074,1.309386 0.85855,0.399221 1.63288,0.79829 1.72073,0.886817 0.15013,0.151283 0.15077,0.182176 0.0106,0.514048 -0.28331,0.670804 0.0603,1.903907 0.85516,3.068738 0.19095,0.279834 0.2649,0.476308 0.22947,0.609653 -0.0288,0.108215 -0.37814,0.550495 -0.7764,0.982842 -1.26838,1.376916 -1.36475,1.859063 -0.61616,3.082592 0.65533,1.071097 0.64502,1.182748 -0.18568,2.008854 -0.4572,0.454684 -0.53714,0.738569 -0.51855,1.841529 0.007,0.433684 -0.004,0.788448 -0.0242,0.788369 -0.0206,-8e-5 -0.32695,-0.225576 -0.68074,-0.501108 -1.56374,-1.217835 -3.20426,-1.798508 -3.83777,-1.358402 -0.23573,0.163766 -0.25123,0.402658 -0.0755,1.163042 0.14283,0.617876 0.068,0.859292 -0.2659,0.858009 -0.11939,-5.29e-4 -0.32454,0.09089 -0.45589,0.202996 -0.20053,0.171149 -0.25388,0.31904 -0.33275,0.922348 -0.15481,1.184233 -0.13374,1.132441 -0.41648,1.023689 -0.31723,-0.122018 -2.17477,-0.134368 -2.29479,-0.01527 -0.0502,0.04983 -0.12969,0.468807 -0.17662,0.931071 -0.0965,0.950899 -0.29506,1.63749 -0.5453,1.885818 -0.13821,0.137147 -0.30564,0.168201 -0.89469,0.165936 -0.39857,-0.0016 -1.03749,0.06659 -1.41982,0.151371 -1.0217,0.22657 -1.45248,0.183904 -2.51233,-0.248849 -2.06152,-0.841753 -2.71539,-0.68367 -3.918801,0.947423 -1.269191,1.720252 -1.813991,2.062207 -2.351908,1.476224 z"
     id="path2240" />
  <path
     style="fill:#ffffff;stroke-width:0.0901091"
     d="m 60.69896,67.932289 c -1.684232,-0.246896 -2.683457,-0.718378 -3.864034,-1.823227 -1.037267,-0.970738 -2.04611,-1.697877 -2.981377,-2.148872 l -0.704726,-0.339826 -3.86125,0.0061 c -3.333602,0.0053 -3.854362,-0.01164 -3.810846,-0.123762 0.02772,-0.07142 0.09913,-0.566626 0.158681,-1.10046 0.184888,-1.657358 -0.03518,-2.717874 -0.641366,-3.090728 -0.164055,-0.100909 -0.608505,-0.28829 -0.987663,-0.416406 -1.514573,-0.51176 -1.520404,-1.122728 -0.02447,-2.563815 0.78763,-0.758751 0.992677,-1.145453 0.924229,-1.743033 -0.0704,-0.614587 -0.722392,-1.901007 -1.469668,-2.899722 -0.334708,-0.447331 -0.931587,-1.243362 -1.326396,-1.768957 -1.302602,-1.734108 -1.865595,-3.165371 -1.644025,-4.17949 0.130281,-0.5963 0.687147,-1.736252 0.904436,-1.85147 0.09396,-0.04982 0.461338,-0.130646 0.816406,-0.179612 0.355068,-0.04897 0.717381,-0.127103 0.80514,-0.173638 0.189749,-0.100613 0.929436,-2.107451 0.944047,-2.561273 0.0065,-0.200805 -0.07823,-0.434697 -0.245549,-0.678137 -0.23453,-0.341218 -0.2451,-0.39071 -0.129247,-0.605198 0.0694,-0.128473 0.392891,-0.480949 0.718881,-0.78328 0.325991,-0.302329 0.753949,-0.743429 0.951021,-0.98022 0.197072,-0.236795 0.445027,-0.451943 0.551011,-0.47811 0.309427,-0.0764 0.824947,0.252301 1.876261,1.196318 1.235985,1.10984 1.592685,1.336834 2.629545,1.673371 0.942311,0.305848 1.182995,0.327877 1.546688,0.141571 0.314677,-0.161195 0.37374,-0.302488 0.305806,-0.731539 l -0.05296,-0.334484 0.710612,0.06715 c 2.011865,0.190111 3.296783,0.736523 4.089903,1.739244 0.64457,0.814911 0.807884,1.421093 0.571865,2.122646 -0.448741,1.333878 0.237815,2.994975 1.381479,3.34242 0.491665,0.149368 0.964878,-0.039 1.702369,-0.677666 0.641628,-0.555644 0.882515,-0.607976 1.450959,-0.31522 0.660945,0.340397 1.41944,1.399167 1.225378,1.710484 -0.02863,0.04593 -0.274759,0.208068 -0.546946,0.360307 -0.608227,0.340185 -0.654447,0.48651 -0.461129,1.459786 0.251039,1.263864 0.893778,2.465413 1.591286,2.974787 0.513006,0.374634 1.082831,0.525698 2.58795,0.686075 2.134225,0.227417 2.742531,0.404865 3.141806,0.916495 0.234386,0.300342 0.242596,0.864338 0.03653,2.509944 -0.106786,0.852799 -0.19151,1.22369 -0.309327,1.354095 -0.290081,0.321072 -0.356856,0.543113 -0.422134,1.403667 -0.103423,1.363372 -0.186389,1.47365 -1.406229,1.869128 -0.631346,0.204684 -0.908098,0.425095 -1.072605,0.854236 -0.124542,0.324885 -0.07013,0.596371 0.32671,1.630106 l 0.311788,0.812189 -0.106818,0.918575 c -0.17852,1.535163 -0.474967,2.209512 -1.072565,2.439842 -0.784326,0.3023 -3.979431,0.526741 -5.119463,0.359619 z"
     id="path2279" />
  <path
     style="fill:#ffffff;stroke-width:0.0901091"
     d="m 77.996306,93.671416 c -0.556151,-0.09518 -1.209249,-0.337211 -1.428612,-0.529434 -0.0913,-0.08 -0.319635,-0.409866 -0.50741,-0.733025 -0.41973,-0.722358 -0.696166,-0.988222 -1.390597,-1.337413 -1.258414,-0.632786 -3.02846,-1.025311 -5.447006,-1.207927 -3.402428,-0.256907 -3.974738,-0.31234 -4.909161,-0.47549 -2.565773,-0.44799 -4.87059,-1.683417 -5.161505,-2.766669 -0.05329,-0.198445 -0.09552,-1.009597 -0.09384,-1.802558 0.0035,-1.638573 -0.07893,-1.95003 -0.649499,-2.454894 -0.444532,-0.393343 -1.034939,-0.551911 -2.482004,-0.666602 -1.582568,-0.125431 -1.867447,-0.170762 -2.320075,-0.369173 -0.401535,-0.176017 -0.569362,-0.398045 -0.568005,-0.751441 0.0011,-0.266348 0.29365,-0.418243 1.228264,-0.63755 0.734108,-0.17226 1.18376,-0.412518 1.286685,-0.687504 0.03927,-0.104908 0.02008,-0.540631 -0.04266,-0.968275 -0.359182,-2.44866 -0.494876,-4.088135 -0.493313,-5.960311 0.0016,-1.991717 0.07968,-2.74271 0.425741,-4.098364 0.190445,-0.746027 0.6921,-2.11492 0.774938,-2.114603 0.02598,1.01e-4 0.315664,0.248071 0.643769,0.551045 1.688462,1.55915 4.366704,2.042959 8.059647,1.455928 1.155774,-0.183721 1.269183,-0.222975 1.560198,-0.540019 0.433237,-0.471988 0.668671,-1.280549 0.81131,-2.786325 0.06197,-0.654169 0.04938,-0.725003 -0.272552,-1.532914 -0.185637,-0.465881 -0.33795,-0.977733 -0.338474,-1.137451 -0.0013,-0.399942 0.291785,-0.678858 0.916252,-0.871921 0.789382,-0.244052 1.176986,-0.469996 1.339128,-0.780611 0.08511,-0.163039 0.183436,-0.685536 0.232833,-1.237232 0.08946,-0.999079 0.24107,-1.369909 0.587288,-1.436457 0.0921,-0.0177 0.465632,0.04328 0.830067,0.135522 0.650986,0.164767 0.668432,0.164619 0.994576,-0.0084 0.229672,-0.121843 0.415872,-0.332565 0.604248,-0.683829 0.149757,-0.279246 0.349856,-0.592735 0.444666,-0.696642 0.371375,-0.407009 1.004346,-0.148617 2.122813,0.866574 1.302007,1.181779 1.962439,1.353481 2.913174,0.757367 1.118007,-0.700995 1.457354,-0.887474 1.613905,-0.88687 0.47815,0.0019 2.464576,2.434113 3.292441,4.031424 0.234159,0.451792 0.279911,0.649356 0.300786,1.298869 0.03202,0.996045 0.296315,1.618001 1.701581,4.004196 1.648213,2.798738 1.817105,3.252216 1.529572,4.106905 -0.179557,0.533733 -0.204378,1.079079 -0.06138,1.348753 0.05655,0.10664 0.261983,0.27587 0.456526,0.376063 0.194542,0.100192 0.395316,0.260628 0.446166,0.356523 0.05085,0.0959 0.09086,0.589087 0.08891,1.095978 -0.0044,1.133989 0.111749,1.370661 1.121704,2.28645 1.037653,0.940909 1.168881,1.231178 0.879718,1.945897 -0.13575,0.335528 -0.171712,0.361603 -0.496991,0.360352 -0.460523,-0.0019 -0.740357,0.25763 -0.654923,0.607097 0.03317,0.135665 0.196451,0.497231 0.362855,0.803484 0.41887,0.77089 0.48809,1.051049 0.318889,1.290653 -0.214587,0.303874 -0.527997,0.379817 -1.831776,0.44386 -1.267579,0.06226 -1.58872,0.150918 -1.939179,0.535323 -0.152445,0.167212 -0.181748,0.327769 -0.187018,1.024697 -0.0061,0.812922 -0.01175,0.833559 -0.342768,1.263653 -0.51607,0.670512 -0.472323,1.029835 0.224896,1.847299 0.382053,0.447943 0.312743,0.905071 -0.337026,2.222852 -0.281975,0.571868 -0.512993,1.121093 -0.513374,1.220502 -2.65e-4,0.09941 0.200782,0.510971 0.447032,0.914583 0.246253,0.403611 0.447368,0.827772 0.446929,0.94258 -0.0011,0.278662 -0.213781,0.346845 -1.308206,0.419346 -1.676241,0.111043 -1.903624,0.263483 -1.80054,1.207085 l 0.05993,0.548553 -1.520917,-0.01646 c -0.836504,-0.009 -1.722385,-0.05093 -1.968625,-0.09307 z"
     id="path2318" />
  <path
     style="fill:#ffffff;stroke-width:0.0901091"
     d="m 37.243206,96.368682 c -1.168916,-0.383667 -2.237357,-1.142625 -2.744944,-1.949852 -0.23354,-0.371401 -0.247997,-0.447109 -0.193294,-1.012124 0.05856,-0.604803 0.05619,-0.613643 -0.24516,-0.916435 -0.211797,-0.21281 -0.529664,-0.381611 -1.045761,-0.55535 -1.145156,-0.385503 -1.304276,-0.747178 -0.916593,-2.083382 0.238387,-0.821642 0.236868,-1.35536 -0.005,-1.755568 -0.255285,-0.422418 -0.338039,-0.481926 -1.397817,-1.005179 -0.92596,-0.457184 -1.326301,-0.801365 -1.432518,-1.231569 -0.03334,-0.135025 0.042,-0.589341 0.184523,-1.112801 0.27346,-1.004337 0.305562,-1.596318 0.10753,-1.982903 -0.113258,-0.221097 -0.251593,-0.300856 -0.811628,-0.467964 -0.376397,-0.11231 -0.658612,-0.243919 -0.637834,-0.297447 0.0205,-0.0528 0.261758,-0.406379 0.536138,-0.78572 0.926502,-1.28093 1.883387,-3.33475 2.825705,-6.064999 0.270704,-0.78433 0.544008,-1.536766 0.607344,-1.672081 0.188753,-0.40327 0.722325,-0.589061 2.120349,-0.73832 1.595739,-0.170368 1.899862,-0.2534 2.26867,-0.619379 0.240678,-0.23884 0.299717,-0.368991 0.300847,-0.663239 0.0013,-0.348509 -0.02556,-0.384416 -0.560311,-0.747808 -0.308946,-0.209944 -0.591343,-0.425426 -0.627549,-0.478846 -0.113363,-0.167259 -0.07163,-0.89963 0.0803,-1.409329 0.343307,-1.151708 1.205172,-2.362478 2.306973,-3.240897 0.63318,-0.504809 1.713447,-1.062755 2.055112,-1.06144 0.117843,5.29e-4 0.533479,0.140621 0.923642,0.311484 0.390162,0.170862 0.831387,0.337947 0.980498,0.371297 0.407453,0.09114 0.8905,-0.10968 1.397685,-0.581051 0.250288,-0.232611 0.541451,-0.467469 0.647033,-0.521899 0.130699,-0.06738 1.61344,-0.101589 4.64607,-0.10718 l 4.454107,-0.0082 0.759455,0.38507 c 0.4177,0.211788 1.065591,0.616034 1.439757,0.898329 l 0.680304,0.51326 -0.297336,0.682984 c -0.353454,0.811898 -0.709517,2.121832 -0.875284,3.220115 -0.266194,1.763672 -0.112112,5.271724 0.378508,8.617669 0.115795,0.789699 0.115355,0.794139 -0.09461,0.957993 -0.116017,0.09054 -0.579898,0.254283 -1.030849,0.363868 -0.816369,0.198393 -1.347364,0.499809 -1.348385,0.7654 -2.65e-4,0.06893 -0.152839,0.20284 -0.339056,0.297585 -1.067361,0.543062 -3.658356,3.306781 -4.676396,4.988139 -0.358656,0.592346 -0.41429,1.067398 -0.228431,1.950572 0.13856,0.658415 0.0011,1.054515 -0.526214,1.514983 -0.349639,0.30539 -0.480727,0.36467 -0.803656,0.363429 -0.522383,-0.0021 -0.833173,0.318667 -1.213697,1.252291 -0.483084,1.185265 -0.757263,1.31399 -2.198904,1.032378 -0.388162,-0.07582 -0.833967,-0.137959 -0.990679,-0.138076 -0.727401,-5.29e-4 -1.935647,0.884349 -2.360515,1.728801 -0.283538,0.563552 -0.287467,0.719905 -0.04239,1.686581 0.119036,0.469514 0.170463,0.863071 0.132321,1.012606 -0.137264,0.538125 -1.064922,0.66286 -2.188073,0.294216 z"
     id="path2357" />
  <path
     style="fill:#ffffff;stroke-width:0.0901091"
     d="m 26.8976,81.235764 c -0.416337,-0.338206 -1.001733,-0.879131 -1.300884,-1.202058 -0.624856,-0.674518 -0.766247,-1.03619 -0.976411,-2.497642 -0.217987,-1.515827 -0.643022,-2.223876 -1.470832,-2.450198 -0.195897,-0.05356 -0.956582,-0.09234 -1.690412,-0.08619 -1.192985,0.01 -1.372317,-0.0087 -1.693953,-0.176988 -0.413721,-0.216432 -0.843851,-0.653952 -1.39328,-1.417217 -0.905297,-1.257631 -1.362359,-1.588852 -2.196941,-1.592059 -0.755924,-0.0029 -1.205561,0.25812 -2.415042,1.40199 -1.131928,1.070526 -1.652275,1.409684 -3.007081,1.960005 C 9.1760474,75.815867 8.4139932,76.281981 7.9412209,76.8951 7.7050527,77.201379 7.6766577,77.315306 7.632604,78.133326 L 7.584086,79.034241 7.2229591,79.21307 C 6.7284095,79.457981 5.3886672,79.45769 4.9251593,79.212546 4.3202041,78.892635 4.3105338,78.871466 4.4574403,78.188611 4.6384579,77.347199 4.5691003,75.947164 4.3123491,75.259848 4.1963838,74.949412 3.9425963,74.547169 3.6800415,74.257665 3.0431519,73.555405 2.3215654,73.256836 0.78123137,73.058229 0.54593583,73.027892 0.35355438,72.968451 0.3537171,72.926138 c 5.5562e-4,-0.146343 0.798291,-0.767201 1.685,-1.311404 0.4896498,-0.300514 1.8248908,-1.06185 2.9672023,-1.691855 2.5191323,-1.38935 2.9716592,-1.670177 3.1664902,-1.965047 C 8.4204559,67.58242 8.4365418,66.436669 8.2306086,63.812454 8.0947514,62.08122 8.053051,60.954618 8.0854998,59.892115 c 0.070396,-2.30505 0.2222171,-2.551342 2.1683022,-3.517545 1.89124,-0.938972 2.465747,-1.648733 3.469448,-4.286245 0.685571,-1.801532 0.883795,-2.208204 1.443997,-2.962478 0.511157,-0.68824 0.92695,-0.996588 2.089483,-1.549541 0.49656,-0.236185 1.060912,-0.554064 1.254117,-0.706395 0.193204,-0.152334 0.443966,-0.276611 0.557248,-0.276177 0.573326,0.0021 1.113555,0.945864 2.145554,3.747807 1.021639,2.773809 1.648471,3.875106 2.262622,3.975251 2.798482,0.456332 4.008535,0.968335 5.548201,2.347584 0.63717,0.570783 0.80582,0.845002 1.219301,1.982531 0.658669,1.812089 1.118573,2.100524 2.77791,1.742217 1.568299,-0.33865 2.197254,-0.114546 4.022667,1.43332 0.640003,0.542692 2.174782,2.188863 2.252697,2.416193 0.01497,0.04368 -0.2696,0.232201 -0.632378,0.418944 -0.962983,0.4957 -2.341211,1.880666 -2.856341,2.870311 -0.44641,0.857613 -0.657556,1.589265 -0.660239,2.287829 -0.0021,0.578463 0.08322,0.704537 0.785493,1.159004 0.249944,0.161748 0.476406,0.351983 0.503248,0.422746 0.0756,0.199287 -0.370615,0.656857 -0.740344,0.75919 -0.182862,0.05061 -0.900401,0.153072 -1.594533,0.22769 -1.325393,0.142476 -1.849535,0.304385 -2.173152,0.671298 -0.103939,0.117843 -0.40726,0.841939 -0.674045,1.609101 -1.067366,3.069296 -1.980187,5.033893 -2.980822,6.415418 -0.280027,0.38662 -0.533937,0.718137 -0.564251,0.736711 -0.03031,0.01857 -0.395747,-0.242946 -0.812083,-0.581149 z"
     id="path2396" />
  <path
     style="fill:#ffffff;stroke-width:0.0901091"
     d="m 41.74557,64.752937 c -0.173202,-0.06792 -0.557803,-0.228857 -0.85467,-0.357632 -0.296868,-0.128775 -0.681673,-0.236929 -0.855121,-0.240337 -0.28612,-0.0056 -0.381894,-0.08643 -1.032914,-0.871469 -1.131203,-1.364072 -2.647212,-2.640769 -3.753589,-3.161067 -0.552193,-0.259678 -1.309891,-0.291573 -2.226209,-0.09371 -0.322411,0.06962 -0.784161,0.127243 -1.026115,0.128056 -0.387117,0.0013 -0.475102,-0.03612 -0.733086,-0.311783 -0.16595,-0.177318 -0.396978,-0.598561 -0.53239,-0.970727 -0.541022,-1.486942 -0.810662,-1.927331 -1.597715,-2.609456 -1.418384,-1.229288 -2.76652,-1.837933 -4.772419,-2.154618 -0.985729,-0.15562 -0.988148,-0.156623 -1.249712,-0.517369 -0.441116,-0.608386 -0.91004,-1.635315 -1.586929,-3.475331 -0.942477,-2.561976 -1.412827,-3.458557 -1.965803,-3.747212 -0.448588,-0.234161 -0.876956,-0.160287 -1.307276,0.225449 -0.09946,0.08916 -0.627742,0.384638 -1.173953,0.656624 -0.54621,0.271984 -1.096696,0.560914 -1.223302,0.642067 -0.221211,0.141793 -0.256343,0.135017 -0.900431,-0.173693 -0.77881,-0.373285 -1.368561,-0.783569 -1.568391,-1.091121 -0.527177,-0.81136 -0.21607,-2.938142 0.53539,-3.660021 0.234027,-0.224813 4.960355,-2.53479 5.398478,-2.638488 0.216242,-0.05118 0.302646,0.04405 1.205616,1.328767 1.557202,2.215541 3.029932,3.50929 4.68817,4.118422 1.554261,0.570936 2.978002,0.263395 4.037423,-0.87212 0.529857,-0.567918 0.639114,-0.857869 0.502841,-1.334474 -0.161661,-0.565388 -0.116454,-0.792829 0.188642,-0.949116 0.520499,-0.266631 0.691968,-0.167724 1.567466,0.904161 1.89252,2.317038 2.185805,2.647955 2.825737,3.188324 0.984025,0.830932 1.831631,1.240118 2.662367,1.285269 0.900319,0.04894 1.249709,-0.132193 2.265209,-1.174316 l 0.806222,-0.827357 0.01836,0.487868 c 0.01011,0.268327 0.115867,0.771774 0.235048,1.118769 0.326189,0.949706 0.604176,1.380149 2.635835,4.081391 1.157166,1.538544 1.752962,2.824946 1.570755,3.391472 -0.03572,0.111072 -0.4528,0.60856 -0.926836,1.105524 -0.885259,0.928087 -1.10781,1.282155 -1.109668,1.765432 -0.0024,0.632855 0.382096,0.965674 1.57057,1.359369 0.346572,0.114805 0.735049,0.315338 0.865457,0.446751 0.404246,0.407366 0.529347,1.427319 0.33773,2.753511 -0.174771,1.209569 -0.117644,1.125921 -0.767196,1.123424 -0.525505,-0.0021 -0.604923,0.0249 -1.007888,0.341598 -0.240591,0.189082 -0.495578,0.413798 -0.566637,0.499367 -0.150281,0.180964 -0.577437,0.414078 -0.747062,0.407696 -0.0644,-0.0024 -0.258805,-0.05998 -0.432004,-0.127897 z"
     id="path2435" />
  <path
     style="fill:#ffffff;stroke-width:0.0901091"
     d="m 109.43251,105.81881 c -2.08328,-1.25419 -3.19948,-1.76035 -3.88778,-1.763 -0.19638,-7.9e-4 -0.58091,-0.1579 -1.08752,-0.44446 -1.57924,-0.89328 -2.80333,-1.11789 -4.28649,-0.78654 -0.818774,0.18292 -1.595855,0.13404 -1.774441,-0.1116 -0.06884,-0.0947 -0.246875,-0.56899 -0.395629,-1.054 -0.38523,-1.25605 -0.524391,-1.39062 -1.918374,-1.855133 -0.296982,-0.09896 -0.797592,-0.290759 -1.112465,-0.426212 -1.050168,-0.451768 -2.264912,-0.416343 -3.325262,0.09697 -0.493972,0.239133 -1.37909,1.005815 -1.68248,1.457355 -0.176051,0.26201 -0.02005,0.25622 -3.374276,0.12517 l -2.190435,-0.0856 -0.180711,-0.35762 c -0.272018,-0.5383 -1.435594,-3.570123 -1.851257,-4.82365 -0.421746,-1.271874 -0.705544,-2.934412 -0.535589,-3.137599 0.128675,-0.153837 0.384678,-0.200491 1.647259,-0.300207 1.182685,-0.0934 1.415981,-0.21006 1.4179,-0.709009 0.0011,-0.252746 -0.117407,-0.54325 -0.446339,-1.09534 -0.246216,-0.413251 -0.44758,-0.772819 -0.447479,-0.799042 1e-4,-0.02622 0.225324,-0.522256 0.500499,-1.102297 0.722005,-1.521917 0.760978,-2.041355 0.200554,-2.673035 -0.574964,-0.648062 -0.575085,-0.683516 -0.0051,-1.474427 0.255122,-0.353981 0.270648,-0.422463 0.253344,-1.117484 -0.01564,-0.627893 0.0095,-0.775647 0.165529,-0.972423 0.241779,-0.304956 0.680172,-0.415436 1.63631,-0.412374 2.204281,0.0071 2.674525,-0.564063 1.842177,-2.237373 -0.2189,-0.440063 -0.372858,-0.825066 -0.342132,-0.855556 0.100832,-0.10006 0.894686,-0.05518 2.522108,0.142578 1.788179,0.217292 2.927964,0.202944 3.69842,-0.04656 0.455443,-0.147489 0.481103,-0.146891 0.659043,0.0154 0.101833,0.09287 0.363924,0.421431 0.582422,0.730133 0.501317,0.708274 0.788141,0.93671 1.17802,0.938208 0.667279,0.0026 1.128633,-0.380265 2.187004,-1.81477 1.11321,-1.508842 1.57667,-1.647639 3.25963,-0.976198 1.4858,0.592783 1.72127,0.628068 2.68648,0.402587 0.50163,-0.117184 1.11031,-0.189278 1.58272,-0.187462 0.82772,0.0032 1.15149,-0.09214 1.354,-0.398638 0.21624,-0.327281 0.41813,-1.126265 0.48084,-1.902983 l 0.0595,-0.737222 0.46742,-0.05658 c 0.41618,-0.05037 1.21085,0.03476 1.71456,0.183671 0.36297,0.10731 0.50939,-0.134451 0.5994,-0.989679 0.0932,-0.885137 0.24908,-1.215909 0.57259,-1.214665 0.56089,0.0021 0.73371,-0.487178 0.50882,-1.440752 -0.15865,-0.672716 -0.097,-0.754581 0.52294,-0.694989 0.6452,0.06201 1.36045,0.379532 2.34899,1.042779 0.90223,0.605343 2.29187,1.954853 2.47887,2.407287 0.14248,0.344702 0.10658,0.656709 -0.24003,2.086393 -0.096,0.396116 -0.17565,0.915678 -0.17691,1.154584 -0.002,0.37674 0.0459,0.491934 0.36066,0.868196 0.40697,0.486423 0.71206,1.204923 0.71026,1.672695 -5.3e-4,0.17104 -0.10327,0.626394 -0.22801,1.011894 -0.12476,0.385503 -0.22791,0.848019 -0.22923,1.027811 -0.003,0.435525 -0.17678,0.825749 -0.91519,2.057487 -0.68482,1.142355 -0.82012,1.496568 -0.60372,1.580566 0.0754,0.02927 0.55204,-0.01453 1.05917,-0.09731 0.78089,-0.127492 1.01554,-0.133456 1.53282,-0.03896 1.10007,0.200962 1.66715,0.718997 2.4943,2.278597 0.74968,1.413555 0.70374,1.549551 -1.1667,3.453593 -1.30629,1.329764 -1.45041,1.557684 -1.55473,2.458728 -0.15473,1.336511 -0.78049,2.574758 -1.83682,3.634705 -0.77898,0.781648 -1.41973,1.173959 -2.74928,1.683314 -1.67145,0.640334 -2.22384,0.936008 -2.67129,1.429838 -0.72272,0.79766 -0.84533,1.65726 -0.67056,4.70147 0.0502,0.8752 0.0457,1.3293 -0.0132,1.32907 -0.0493,-1.9e-4 -0.67257,-0.35134 -1.38517,-0.78034 z"
     id="path2474" />
  <path
     style="fill:#ffffff;stroke-width:0.0901091"
     d="m 128.07593,92.115521 c -0.5475,-0.173281 -0.80245,-0.365199 -0.99813,-0.751338 -0.45229,-0.892545 -1.45508,-1.828863 -2.56391,-2.39396 -0.8098,-0.4127 -1.20906,-0.531868 -1.80494,-0.538732 l -0.54262,-0.0062 -0.43167,-0.837731 c -0.76768,-1.489795 -1.49701,-2.114513 -2.69816,-2.311136 -0.5722,-0.09367 -1.7659,-0.01707 -2.1796,0.139867 -0.0712,0.027 -0.12931,0.02543 -0.1292,-0.0035 1.1e-4,-0.02891 0.25114,-0.468194 0.55786,-0.976178 0.7518,-1.245169 0.98232,-1.755333 0.98662,-2.183503 0.002,-0.198234 0.10563,-0.684429 0.2303,-1.080434 0.12467,-0.396004 0.22642,-0.90248 0.22611,-1.125503 -8e-4,-0.517951 -0.32309,-1.310947 -0.74274,-1.827112 -0.39765,-0.489101 -0.40524,-0.643715 -0.0963,-1.962065 0.25958,-1.107676 0.30815,-1.847001 0.14241,-2.167729 -0.0622,-0.120303 -0.29323,-0.433398 -0.51346,-0.695764 -0.36599,-0.436023 -0.40776,-0.536887 -0.48579,-1.173297 -0.0939,-0.766173 -0.0349,-1.453814 0.15568,-1.813274 0.068,-0.128281 0.28918,-0.392272 0.49148,-0.586651 0.68048,-0.653833 0.68331,-1.115041 0.0134,-2.184921 -0.43832,-0.699976 -0.52648,-1.138036 -0.31181,-1.549281 0.0824,-0.157834 0.4677,-0.639408 0.85625,-1.070165 0.76262,-0.84546 0.91539,-1.072923 0.91651,-1.364612 5.3e-4,-0.103717 -0.22134,-0.560152 -0.49275,-1.014302 -0.68841,-1.151911 -0.86797,-1.805765 -0.65872,-2.398688 0.10973,-0.310902 0.14105,-0.321443 1.39167,-0.468361 1.52211,-0.17881 1.59237,-0.248197 1.4024,-1.385059 -0.10455,-0.625676 -0.0976,-0.703643 0.13441,-1.501767 0.50291,-1.730274 1.00317,-2.158685 2.34662,-2.00959 0.5929,0.0658 0.74299,0.141904 1.79612,0.910717 0.73952,0.539869 1.47819,0.386183 1.78302,-0.370967 0.0608,-0.151101 0.0979,-0.796353 0.0931,-1.622523 -0.009,-1.550545 0.0289,-1.698005 0.64003,-2.501048 0.42841,-0.562917 0.68963,-0.728461 1.33997,-0.849209 0.94153,-0.17481 2.16887,0.259726 3.36709,1.192109 1.06806,0.831104 1.67403,1.867287 1.67023,2.856021 -0.003,0.654013 0.25542,1.745025 0.57586,2.435749 0.63984,1.379239 1.88207,2.226345 2.68016,1.827676 0.10846,-0.05418 0.54722,-0.457986 0.97502,-0.897351 1.09229,-1.121828 1.28571,-1.098269 2.32937,0.283734 0.74421,0.985465 1.2456,1.191395 2.02786,0.832869 0.19859,-0.09102 0.48322,-0.294444 0.6325,-0.452057 l 0.27143,-0.28657 0.14376,1.612771 c 0.28755,3.225876 0.67583,4.96933 1.99325,8.950139 1.17444,3.548766 1.54668,4.51603 1.97954,5.143871 0.59658,0.865306 0.93855,1.025056 2.82406,1.31927 0.18716,0.02921 0.33751,0.104005 0.33726,0.167791 -0.001,0.30416 -0.84216,1.794828 -1.22937,2.179074 -0.36897,0.366146 -0.45404,0.409715 -0.71522,0.366302 -0.16304,-0.0271 -0.6329,-0.246507 -1.04412,-0.487566 -0.56263,-0.329806 -0.83905,-0.438639 -1.11678,-0.439708 -0.77939,-0.003 -1.10733,0.479295 -1.4053,2.066726 -0.199,1.060215 -0.38413,1.524291 -0.68644,1.72071 -0.29362,0.190778 -0.57079,0.08873 -1.54756,-0.569775 -0.85908,-0.579162 -1.24674,-0.702765 -1.44831,-0.461782 -0.0537,0.06425 -0.34831,0.803145 -0.65461,1.64199 -0.30629,0.838846 -0.7242,1.864017 -0.92868,2.278156 -0.37705,0.763656 -1.06348,1.599427 -1.62961,1.984155 -0.45798,0.311229 -0.74695,0.778269 -1.09812,1.774791 -0.42892,1.21717 -0.64659,1.618461 -0.99298,1.830591 -0.36943,0.22624 -0.54186,0.182911 -1.50737,-0.37881 -0.81926,-0.476633 -1.23764,-0.559427 -1.58998,-0.314647 -0.10625,0.07381 -0.62244,0.695057 -1.14709,1.380551 -0.52466,0.685493 -1.14504,1.413285 -1.37864,1.617318 -0.67671,0.591061 -1.64909,0.782349 -2.54139,0.499943 z"
     id="path2513" />
  <path
     style="fill:#ffffff;stroke-width:0.0901091"
     d="m 117.86024,59.284844 c -0.19992,-0.159184 -0.96878,-0.568683 -1.70859,-0.91 -1.8895,-0.871726 -1.85217,-0.843246 -2.36174,-1.802318 -0.24273,-0.456869 -0.66393,-1.230426 -0.93599,-1.719014 -0.47844,-0.859213 -0.89008,-1.976993 -1.00235,-2.721808 -0.14992,-0.994627 -0.28809,-1.066986 -1.89052,-0.990045 l -1.19461,0.05736 -0.23294,-0.234736 c -0.22506,-0.226801 -0.23279,-0.271576 -0.22875,-1.32461 0.006,-1.688264 -0.0904,-1.783958 -1.93003,-1.906746 -0.64412,-0.04299 -1.3016,-0.118089 -1.46106,-0.166881 -0.88236,-0.269989 -1.70529,-0.972492 -2.09738,-1.790446 -0.23501,-0.490254 -0.33493,-1.498356 -0.16826,-1.697614 0.16142,-0.192985 0.66582,-0.170069 2.12305,0.09645 2.13742,0.390927 3.25479,0.286882 3.82368,-0.356042 0.35574,-0.402042 0.3478,-0.652439 -0.043,-1.357691 -0.1755,-0.316669 -0.30595,-0.665737 -0.28988,-0.775708 0.0316,-0.216569 -0.0582,-0.208169 1.41066,-0.131942 l 0.57061,0.02961 0.42231,-0.474663 c 0.53019,-0.595918 0.73628,-0.634225 2.03444,-0.378171 1.45581,0.287149 1.77621,0.196143 2.60874,-0.740969 0.41294,-0.464804 0.66577,-0.656775 1.17486,-0.892026 0.71933,-0.332407 1.36116,-0.783119 2.48243,-1.743224 0.83805,-0.7176 1.42751,-1.139454 1.77427,-1.269767 0.32983,-0.123952 0.59505,7.94e-4 1.53591,0.721786 1.00172,0.76775 1.41097,0.912802 1.90344,0.674643 0.54325,-0.262718 0.7336,-0.705591 0.93104,-2.166239 0.17303,-1.280094 0.3326,-1.749629 0.6522,-1.919095 0.27696,-0.146862 0.44427,-0.05174 1.10361,0.627476 0.34478,0.355163 0.70581,0.642696 0.83981,0.668848 0.17045,0.03326 0.62793,-0.1451 1.66441,-0.648923 1.91105,-0.928933 2.60753,-1.112453 3.9224,-1.03352 0.91817,0.05512 1.01297,0.04567 1.16005,-0.115597 0.30385,-0.333176 0.0616,-0.935191 -1.2014,-2.985817 -0.77685,-1.261288 -1.16203,-2.014046 -1.16251,-2.271919 -2.7e-4,-0.170154 0.34606,-0.282737 1.16356,-0.378188 0.56327,-0.06577 0.95073,-0.23985 1.04498,-0.469508 0.0363,-0.08842 0.10285,-1.113541 0.14792,-2.278039 0.0451,-1.164497 0.1299,-2.279279 0.18852,-2.477296 0.14955,-0.505201 1.33668,-2.689199 1.59019,-2.92553 l 0.21,-0.195775 0.70242,0.600379 c 1.22371,1.045932 2.56036,1.590627 3.59576,1.465302 0.9023,-0.109212 1.67423,-0.583449 2.83352,-1.740765 0.57298,-0.572003 1.32623,-1.353167 1.67389,-1.735923 0.62802,-0.691418 0.63503,-0.695913 1.08216,-0.694193 0.70608,0.0027 1.72906,0.401185 3.90484,1.521013 1.10785,0.570187 2.36254,1.179459 2.7882,1.353939 1.19395,0.489394 1.33964,0.713539 1.79818,2.766385 0.20706,0.92705 0.51246,1.579512 0.88864,1.898518 0.14879,0.126177 0.63302,0.360656 1.07606,0.521062 0.48111,0.174184 0.89585,0.387938 1.02976,0.530725 0.32036,0.341585 0.44447,0.889241 0.32259,1.423461 -0.12493,0.547585 -0.22496,0.662385 -0.576,0.661035 -0.39728,-0.0016 -1.11706,-0.458972 -2.79602,-1.77697 -0.79058,-0.620615 -1.71603,-1.27013 -2.05656,-1.443369 -1.72695,-0.878562 -2.30322,-0.0456 -2.49826,3.611095 -0.10014,1.877501 -0.1154,1.923335 -0.80008,2.403771 -0.59762,0.419351 -1.02484,0.413501 -1.95503,-0.02677 -0.98161,-0.464605 -1.29385,-0.528806 -1.6599,-0.341294 -0.31116,0.159396 -0.36186,0.297495 -0.39873,1.086123 -0.0248,0.530317 -0.0319,0.543766 -0.37487,0.709607 -0.2777,0.134273 -0.6729,0.183322 -1.9214,0.238464 -0.86449,0.03818 -1.74176,0.113953 -1.9495,0.168383 -1.27728,0.334666 -1.77252,1.16417 -1.66363,2.78651 0.0629,0.937043 0.0288,1.050046 -0.60696,2.013725 -0.40526,0.614241 -0.47102,0.774975 -0.47248,1.154885 -0.001,0.37184 0.038,0.475737 0.25029,0.659778 0.33537,0.290717 0.49447,0.278096 1.35778,-0.107712 0.40316,-0.18017 0.84175,-0.327167 0.97464,-0.326657 0.33028,0.0013 1.15618,0.521465 1.74187,1.097116 0.98068,0.963885 1.69941,2.354699 1.79843,3.480171 l 0.0491,0.557754 -0.69497,0.784969 c -0.38224,0.431734 -0.7284,0.899843 -0.76925,1.040244 -0.0987,0.33924 0.0421,0.720923 0.56374,1.528122 0.7623,1.179602 0.91837,1.731618 0.64022,2.264465 -0.19508,0.373722 -0.49708,0.461709 -1.57059,0.457581 -0.82461,-0.0032 -1.02742,0.02606 -1.37032,0.19748 -0.48341,0.241668 -0.74688,0.665861 -0.94626,1.523492 -0.2695,1.159304 -0.14555,2.170247 0.28664,2.337755 0.70489,0.273193 1.23205,0.603316 1.55639,0.974656 0.49993,0.572379 0.94084,1.398673 1.12318,2.104922 0.14764,0.571873 0.14696,0.607886 -0.0185,0.971122 -0.21334,0.468301 -0.87437,1.058206 -1.26647,1.130204 -0.43652,0.08016 -0.77006,-0.140843 -1.29983,-0.861234 -0.75595,-1.027944 -1.11933,-1.261761 -1.77409,-1.141532 -0.26335,0.04836 -0.5017,0.234974 -1.15789,0.906566 -0.91075,0.932119 -1.04224,0.985231 -1.65621,0.669028 -0.70322,-0.362172 -1.36119,-1.29444 -1.66328,-2.356699 -0.0777,-0.273262 -0.17977,-0.917869 -0.22681,-1.43246 -0.0971,-1.062474 -0.30343,-1.611371 -0.8578,-2.282137 -0.5281,-0.638987 -1.4287,-1.326499 -2.27741,-1.738561 -0.69846,-0.339109 -0.83237,-0.372367 -1.64312,-0.408051 -0.81022,-0.03566 -0.92267,-0.01947 -1.36978,0.197149 -0.33541,0.162502 -0.59853,0.382407 -0.84489,0.70612 -0.69421,0.912156 -0.70188,0.939535 -0.71295,2.545416 -0.011,1.589548 -0.0927,1.948169 -0.48961,2.148967 -0.30382,0.153686 -0.49074,0.07977 -1.21691,-0.481256 -0.73356,-0.566732 -1.07929,-0.683649 -2.04696,-0.692214 -0.72546,-0.0064 -0.80748,0.01206 -1.16309,0.261954 -0.48589,0.34146 -0.8258,0.943829 -1.13655,2.014162 -0.2377,0.818724 -0.24193,0.870815 -0.13038,1.606465 0.0919,0.606197 0.0924,0.77429 0.003,0.829318 -0.0619,0.03796 -0.5255,0.115977 -1.0301,0.173371 -0.5046,0.05739 -0.97833,0.118713 -1.05274,0.136265 -0.0744,0.01754 -0.29885,-0.09832 -0.49876,-0.257505 z"
     id="path2552" />
  <path
     style="fill:#ffffff;stroke-width:0.0901091"
     d="m 151.23446,75.074756 c -0.24753,-0.0698 -0.79455,-0.173209 -1.2156,-0.229806 -1.37757,-0.18518 -1.89207,-0.551088 -2.50498,-1.781509 -0.39921,-0.801409 -2.34146,-6.605439 -2.71212,-8.104608 -0.56361,-2.279623 -0.8939,-4.772427 -0.97288,-7.342685 -0.0185,-0.602006 -0.0875,-1.191342 -0.16457,-1.406099 -0.50872,-1.417145 -1.49259,-2.550961 -2.46987,-2.8463 -0.49885,-0.150754 -0.58407,-0.362095 -0.5248,-1.301501 0.055,-0.871453 0.3627,-1.699326 0.73275,-1.971358 0.21866,-0.160737 0.42446,-0.193595 1.44265,-0.230327 1.35307,-0.04882 1.50083,-0.106318 1.78997,-0.696609 0.3402,-0.694507 0.17896,-1.286748 -0.74807,-2.747769 -0.24572,-0.387255 -0.44638,-0.803526 -0.44591,-0.925044 5.3e-4,-0.142645 0.18926,-0.42885 0.5325,-0.807612 0.81397,-0.898207 0.93928,-1.100523 0.93939,-1.516649 1.9e-4,-0.832274 -0.45762,-2.155804 -1.04427,-3.018944 -0.65864,-0.969057 -1.93583,-2.016408 -2.66228,-2.183185 -0.32592,-0.07482 -0.69729,0.02572 -1.66666,0.451186 l -0.48263,0.211833 -0.17067,-0.212434 c -0.23899,-0.297474 -0.21611,-0.443891 0.16447,-1.052523 0.82821,-1.324475 0.85279,-1.401154 0.79197,-2.470454 -0.0514,-0.904119 -0.0407,-0.994466 0.17343,-1.457436 0.39893,-0.862595 0.90538,-1.043752 3.18629,-1.139749 1.57643,-0.06635 2.15913,-0.196101 2.44959,-0.545465 0.0598,-0.07199 0.12206,-0.432308 0.13824,-0.800705 0.0277,-0.631093 0.0431,-0.67455 0.2659,-0.751661 0.19479,-0.06741 0.39418,-0.0074 1.13078,0.34039 1.2441,0.587393 1.87101,0.551973 2.71305,-0.153289 0.50468,-0.422709 0.555,-0.611056 0.65888,-2.466176 0.097,-1.732463 0.19415,-2.393871 0.43706,-2.976042 0.44193,-1.059166 1.06162,-0.866163 3.62564,1.129213 0.86472,0.672944 1.80045,1.346435 2.07939,1.496647 0.58687,0.316037 1.12319,0.360011 1.42578,0.116904 0.24665,-0.19816 0.47374,-1.100431 0.39861,-1.583719 l -0.0542,-0.348496 0.57611,0.06446 c 1.88307,0.210696 3.47786,0.868781 4.4012,1.816137 0.38792,0.398016 0.4204,0.41234 0.94241,0.415658 0.72745,0.0046 1.63105,0.162018 2.0706,0.360664 1.13153,0.511379 1.55225,1.746348 1.6164,4.744712 l 0.0366,1.71223 -1.14714,1.34724 c -2.03129,2.385602 -2.89629,3.760123 -3.16793,5.033975 -0.17261,0.809395 -0.17288,1.333151 -0.002,3.228007 0.18937,2.095852 0.0678,2.933761 -0.63219,4.357616 -0.3307,0.672674 -1.11768,1.559653 -1.66688,1.878674 l -0.4005,0.232643 -0.33896,-0.236831 c -0.44234,-0.309071 -0.60795,-0.299419 -0.78823,0.04594 -0.0815,0.156159 -0.32139,0.469495 -0.53306,0.696301 -0.70239,0.752623 -0.74641,1.058592 -0.30795,2.140482 0.30119,0.74318 0.33065,1.111361 0.22951,2.868678 -0.0307,0.533887 -0.005,0.680763 0.16519,0.957424 0.2776,0.450226 0.25385,0.878763 -0.0856,1.54482 -0.1565,0.307091 -0.38181,0.813769 -0.50069,1.125953 -0.37193,0.976723 -0.73599,1.60337 -1.25415,2.158754 -0.27529,0.295058 -0.50115,0.612143 -0.50191,0.704638 -8e-4,0.09301 0.28545,0.437999 0.64045,0.771935 0.60563,0.569696 0.63842,0.620673 0.58107,0.903333 -0.0334,0.164761 -0.2777,0.623128 -0.54281,1.018593 -0.5823,0.86859 -0.66062,1.103172 -0.7361,2.204863 -0.0323,0.470699 -0.0978,1.017865 -0.14571,1.215924 -0.0479,0.198057 -0.0896,0.756753 -0.0926,1.241549 -0.006,0.891612 -0.11932,1.352759 -0.38813,1.57394 -0.0759,0.06243 -0.47804,0.197618 -0.89369,0.300411 -1.43774,0.355574 -1.70355,0.622546 -1.70775,1.715243 -0.003,0.677813 -0.14138,0.917052 -0.66968,1.154515 -0.44538,0.200192 -1.32947,0.210616 -1.99309,0.02349 z"
     id="path2591" />
  <path
     style="fill:#ffffff;stroke-width:0.0901091"
     d="m 184.81501,92.966976 c -0.69851,-0.180218 -1.20429,-0.556937 -2.16593,-1.613265 -1.51372,-1.662753 -2.10985,-2.213118 -2.73224,-2.522498 -0.55412,-0.275441 -0.60351,-0.283625 -1.45296,-0.240707 -0.66841,0.03377 -1.12821,0.122552 -1.91685,0.37012 -0.62428,0.195969 -1.30677,0.3443 -1.71352,0.372412 -0.60935,0.04211 -0.70702,0.0254 -0.99056,-0.169566 -0.173,-0.11896 -0.32729,-0.307195 -0.34287,-0.418301 -0.0162,-0.116009 0.16769,-0.562261 0.43205,-1.048184 0.45758,-0.841047 0.56643,-1.296017 0.3501,-1.463299 -0.0618,-0.04776 -0.3491,-0.181817 -0.63852,-0.297895 -0.46997,-0.188494 -1.96106,-1.144227 -3.0037,-1.925264 -0.34949,-0.261805 -0.39576,-0.27455 -0.52633,-0.144976 -0.0874,0.08678 -0.17451,0.412245 -0.22373,0.83639 -0.0443,0.381881 -0.10493,0.770081 -0.13471,0.862664 -0.0902,0.280397 -1.20955,1.23326 -1.63938,1.395523 -0.36533,0.137914 -0.42964,0.139179 -0.69045,0.01357 -0.38092,-0.183451 -1.18483,-0.855736 -2.76121,-2.309106 -0.71344,-0.657775 -1.58017,-1.413663 -1.92607,-1.679755 -0.694,-0.533868 -1.37567,-1.328943 -1.65617,-1.931667 -0.13698,-0.294365 -0.18167,-0.576027 -0.18018,-1.135814 0.003,-1.250267 -0.29815,-1.702334 -1.93309,-2.898637 -0.44905,-0.32857 -0.92707,-0.758354 -1.06228,-0.955072 -0.46722,-0.679762 -0.75123,-2.033455 -0.7686,-3.663389 -0.0116,-1.089633 0.22093,-3.93283 0.44278,-5.413658 0.023,-0.153413 0.28518,-0.655328 0.58266,-1.115367 0.83789,-1.295773 0.82476,-1.642697 -0.0925,-2.443535 l -0.5281,-0.461063 0.44634,-0.484608 c 0.52741,-0.572641 0.88729,-1.183498 1.23101,-2.089542 0.13791,-0.363532 0.38865,-0.92307 0.55719,-1.243417 0.39155,-0.744207 0.41244,-1.275752 0.0757,-1.925865 -0.22999,-0.443995 -0.23211,-0.465143 -0.11836,-1.178317 0.15523,-0.973235 0.0754,-1.704594 -0.29085,-2.663391 -0.35543,-0.930574 -0.34072,-1.022781 0.26584,-1.666264 0.22153,-0.235021 0.44811,-0.525777 0.5035,-0.646125 l 0.10072,-0.218816 0.31702,0.216921 c 0.17437,0.119309 0.38233,0.216792 0.46215,0.216636 0.28392,-5.3e-4 1.06955,-0.529506 1.53162,-1.031198 0.58709,-0.637429 0.8917,-1.149413 1.20617,-2.027327 0.42978,-1.199828 0.48868,-1.915264 0.31534,-3.830556 -0.0834,-0.9212 -0.1282,-1.9691 -0.0996,-2.328672 0.069,-0.868373 0.40351,-1.785075 0.99257,-2.7203 0.50118,-0.795703 2.08609,-2.81622 2.947,-3.756975 l 0.49468,-0.540567 -0.0482,-1.802384 c -0.0265,-0.99131 -0.0718,-1.991556 -0.10067,-2.222768 l -0.0525,-0.420386 0.52206,-0.06319 c 0.66564,-0.08057 2.33242,0.02495 3.14696,0.199213 1.16797,0.249886 1.93598,0.768744 1.93392,1.30652 -5.3e-4,0.132522 -0.14872,0.481291 -0.32935,0.775044 -0.65634,1.067398 -0.80285,1.591583 -0.57253,2.048423 0.0547,0.108463 0.37313,0.482102 0.70767,0.830313 0.37436,0.389646 0.64995,0.766283 0.71668,0.979431 0.0798,0.255011 0.0893,0.828509 0.0361,2.175092 -0.10365,2.620079 0.0142,2.8984 1.60855,3.800449 1.39672,0.790202 1.48821,1.04295 1.49915,4.141385 l 0.008,2.254774 0.26827,0.537662 c 0.3286,0.658615 0.52974,0.810448 1.39266,1.051293 0.88293,0.246431 1.0353,0.356561 1.15349,0.833652 0.12513,0.505105 0.026,1.130898 -0.45171,2.850377 -0.55948,2.014019 -0.50055,2.259021 0.54074,2.247924 1.06106,-0.01132 2.59577,0.650502 4.64184,2.001703 1.76796,1.167532 3.62584,2.849642 3.62418,3.281299 -0.001,0.281776 -0.22894,0.554572 -1.0083,1.207145 -0.93733,0.784855 -1.19981,1.169837 -1.19328,1.750243 0.008,0.707054 0.37204,1.165 1.77613,2.233948 1.78648,1.360064 1.85869,1.715746 0.77504,3.817472 -0.65426,1.268907 -0.70478,1.406978 -0.73791,2.016395 -0.0563,1.03569 0.12478,1.210646 1.48516,1.434991 1.66861,0.27518 1.77318,0.459756 1.90085,3.355182 0.0415,0.941808 0.11962,1.861891 0.17355,2.044628 0.0595,0.201766 0.37806,0.641183 0.81106,1.118881 1.13973,1.2574 1.33443,1.869352 0.75529,2.373915 -0.17471,0.152218 -0.43297,0.335828 -0.5739,0.408022 -0.14094,0.0722 -0.38447,0.276175 -0.54119,0.45329 -0.26329,0.297561 -0.28513,0.37144 -0.28744,0.972402 -0.002,0.426275 0.13796,1.333915 0.40515,2.634133 0.31998,1.557102 0.40962,2.187268 0.41677,2.929954 0.009,0.893543 -0.006,0.973563 -0.26312,1.438208 -0.33322,0.602274 -0.78907,0.935983 -1.17473,0.859976 -0.14857,-0.02928 -0.65435,-0.314058 -1.12395,-0.632841 -1.12112,-0.761066 -1.35017,-0.869392 -1.84232,-0.871281 -0.5585,-0.0021 -0.87285,0.143793 -1.67773,0.778917 -1.05882,0.835496 -1.35335,0.952551 -1.98605,0.789308 z"
     id="path2630" />
  <path
     style="fill:#ffffff;stroke-width:0.0901091"
     d="m 171.71846,107.31047 c -0.2117,-0.0421 -0.3121,-0.21743 -0.60251,-1.05192 -0.12353,-0.35498 -0.21352,-0.46362 -0.47581,-0.5744 -0.35499,-0.14993 -0.56236,-0.11041 -1.79106,0.34129 l -0.55951,0.20569 -0.24757,-0.18632 c -0.2504,-0.18846 -0.2926,-0.29777 -0.47614,-1.23339 -0.056,-0.28568 -0.1952,-0.63088 -0.30923,-0.76712 -0.2614,-0.3123 -2.90188,-1.6519 -3.87102,-1.96388 -0.90771,-0.29221 -1.31284,-0.36088 -3.91723,-0.66395 -2.30991,-0.26881 -3.27932,-0.27109 -5.0461,-0.0119 -1.83964,0.26989 -2.279,0.41258 -3.03636,0.98609 -0.22363,0.16934 -0.48994,0.30758 -0.5918,0.30718 -0.30545,-0.001 -0.70733,-0.31473 -1.44898,-1.13053 -0.38677,-0.42544 -0.82582,-0.83752 -0.97567,-0.91574 -0.14984,-0.0782 -0.57462,-0.16624 -0.94395,-0.1956 -0.66772,-0.0531 -0.67117,-0.0547 -0.61236,-0.28524 0.36886,-1.446086 0.20602,-2.41431 -0.51306,-3.050575 -0.42601,-0.376944 -1.02519,-0.55055 -2.30661,-0.668314 -1.07496,-0.09879 -1.80845,-0.233269 -2.12101,-0.388871 -0.38507,-0.191696 -0.86083,-0.756343 -1.04424,-1.239316 -0.16067,-0.423106 -0.19978,-0.79171 -0.25428,-2.396591 -0.0398,-1.171747 -0.1189,-2.136317 -0.20699,-2.523871 -0.17131,-0.75366 -0.60546,-1.518012 -1.53888,-2.709267 l -0.68888,-0.879168 0.26409,-0.18211 c 0.14525,-0.100161 0.52967,-0.447966 0.85426,-0.772901 0.72605,-0.7268 1.14042,-1.515041 1.94003,-3.69044 0.31755,-0.863912 0.62485,-1.586375 0.68289,-1.605473 0.058,-0.0191 0.46364,0.209264 0.90135,0.507471 0.98506,0.67111 1.32658,0.797832 1.76514,0.654963 0.50651,-0.165008 0.74417,-0.616969 1.00036,-1.902354 0.25179,-1.263349 0.3927,-1.623619 0.71759,-1.834714 0.29492,-0.191619 0.56135,-0.124804 1.30997,0.328499 1.15267,0.697963 1.57044,0.701027 2.24176,0.01643 0.39449,-0.402278 1.10003,-1.647288 1.23525,-2.179733 0.0562,-0.221083 0.0816,-0.231407 0.39068,-0.15834 0.91388,0.216056 2.04993,0.01143 2.49482,-0.449387 0.23885,-0.247396 0.26857,-0.346998 0.31621,-1.059693 0.0289,-0.43265 0.0856,-0.837481 0.12592,-0.899629 0.11891,-0.183223 0.52232,-0.355192 1.28547,-0.547978 0.39389,-0.0995 0.80115,-0.205325 0.90501,-0.235154 0.1805,-0.05184 0.19133,-0.01307 0.24486,0.876425 0.10166,1.688912 0.44194,2.798823 1.04434,3.406333 0.16869,0.170127 0.60998,0.532196 0.98064,0.8046 0.84269,0.619316 1.32066,1.069729 1.5056,1.418794 0.0908,0.171471 0.16382,0.624496 0.19886,1.234427 0.0505,0.879162 0.0814,1.006879 0.35266,1.458383 0.4426,0.736664 0.92462,1.266494 1.65925,1.823828 0.36215,0.274749 1.19737,0.99967 1.85605,1.61094 2.168,2.01196 2.82281,2.505601 3.32344,2.505443 0.37377,-1.14e-4 1.10557,-0.40513 1.67157,-0.925116 0.64196,-0.589775 0.73289,-0.772866 0.82616,-1.663494 l 0.0693,-0.661458 0.35933,0.290719 c 0.97918,0.792231 2.44465,1.674217 3.21399,1.934324 0.24401,0.0825 0.19061,0.300453 -0.26047,1.063135 -0.68793,1.163161 -0.63456,1.703427 0.20538,2.078837 0.5735,0.256325 1.34961,0.182975 2.95013,-0.278816 2.30052,-0.66376 2.88783,-0.524062 4.36634,1.038588 2.59168,2.739173 2.86667,2.95429 3.87474,3.031104 0.70329,0.05359 1.00824,-0.06939 1.84104,-0.74244 0.77536,-0.626631 1.28289,-0.914019 1.39793,-0.791572 0.0968,0.103034 0.57073,2.273662 0.76493,3.503366 0.10716,0.678603 0.15568,1.504014 0.15366,2.613777 -0.003,1.730454 -0.10403,2.338599 -0.52694,3.177339 -0.24498,0.48584 -0.81171,1.00763 -1.09324,1.00654 -0.11557,-5.2e-4 -0.55055,-0.21199 -0.96661,-0.4701 -1.14925,-0.71295 -1.34463,-0.80032 -1.79366,-0.80204 -0.34498,-0.001 -0.45927,0.0446 -0.68035,0.2735 l -0.26572,0.2751 -0.0237,1.36026 c -0.0273,1.57027 -0.0735,1.68385 -0.94856,2.33616 -1.10437,0.82318 -2.2359,1.18043 -3.74,1.18079 -0.96048,2.4e-4 -1.01079,-0.009 -1.30563,-0.2507 -0.76491,-0.62595 -0.99965,-0.74528 -1.46959,-0.74709 -0.65734,-0.003 -1.1688,0.22627 -2.32554,1.0403 -1.28096,0.90145 -1.75684,1.10649 -2.31174,0.99604 z"
     id="path2669" />
  <path
     style="fill:#ffffff;stroke-width:0.063717"
     d="m 129.94384,129.51089 c -0.0218,-0.0574 0.023,-0.43712 0.0996,-0.84387 0.24341,-1.2936 0.18097,-1.94003 -0.23463,-2.42936 -0.46696,-0.5498 -1.11247,-0.73984 -2.49933,-0.73581 -1.09391,0.003 -1.50014,0.0712 -3.12416,0.5235 -1.55908,0.43417 -2.42723,0.40101 -2.99327,-0.11434 -0.32931,-0.29982 -0.48281,-0.58422 -0.91111,-1.68814 -0.40484,-1.04348 -0.68735,-1.47649 -1.10991,-1.70127 -0.33038,-0.17574 -0.7521,-0.19623 -1.03681,-0.0504 -0.10826,0.0555 -0.43372,0.28014 -0.72325,0.4993 -0.61843,0.4681 -0.75106,0.51799 -1.59504,0.5999 -0.82791,0.0804 -0.95836,0.10938 -1.3335,0.29665 -0.4267,0.21301 -0.80818,0.61863 -1.4756,1.569 -0.31027,0.44182 -0.69677,0.92041 -0.85888,1.06353 -0.34837,0.30756 -0.87953,0.5651 -1.24504,0.60367 -0.67997,0.0717 -1.18005,-0.79303 -1.17698,-2.03532 0.002,-0.71509 0.1342,-1.12939 0.70901,-2.21817 0.94147,-1.78324 1.13286,-2.34801 1.07765,-3.18001 -0.0405,-0.61078 -0.19885,-1.06559 -0.80519,-2.31298 -0.55138,-1.13434 -0.7248,-1.72349 -0.67191,-2.28276 0.0549,-0.5811 0.33636,-1.02185 1.36601,-2.1394 1.09548,-1.189 1.32534,-1.57437 1.36407,-2.2869 0.043,-0.79066 -0.38685,-1.90797 -1.23075,-3.19926 -0.35585,-0.5445 -0.38511,-0.61509 -0.33144,-0.79955 0.0819,-0.28144 0.073,-0.81789 -0.0309,-1.86016 -0.11547,-1.15859 -0.11062,-2.30987 0.0119,-2.82067 0.27685,-1.15438 0.89773,-1.69802 2.62074,-2.294707 0.99746,-0.34543 2.06403,-0.864945 2.58996,-1.261558 0.80945,-0.610404 1.67512,-1.637678 2.12992,-2.527517 0.28598,-0.559532 0.49325,-1.265221 0.55462,-1.888296 0.0926,-0.940501 0.2264,-1.139508 1.84454,-2.743849 0.42377,-0.420163 0.88759,-0.943575 1.0307,-1.163134 0.25703,-0.394356 0.45096,-1.016138 0.36213,-1.161111 -0.0664,-0.10832 0.0993,-0.182496 0.40746,-0.182404 0.30863,9.3e-5 1.05797,0.237022 1.55813,0.492654 0.87498,0.447204 1.91664,1.337189 2.26681,1.936732 0.45082,0.771877 0.53166,0.863444 0.95161,1.077878 0.82289,0.420177 1.92313,0.445484 2.7081,0.06229 0.59529,-0.290591 1.04436,-0.738256 1.93904,-1.932958 0.40413,-0.53965 0.87296,-1.123445 1.04185,-1.297318 0.27932,-0.287571 0.32607,-0.312325 0.51737,-0.273971 0.11567,0.02318 0.43915,0.182258 0.71884,0.353486 1.07572,0.658532 1.41708,0.757203 1.85464,0.536091 0.52539,-0.265496 0.88,-0.805609 1.18161,-1.799749 0.0782,-0.257863 0.21372,-0.647946 0.30109,-0.866852 l 0.15884,-0.39801 0.37873,0.463794 c 0.57244,0.701005 1.21825,1.6315 1.43306,2.064789 0.35082,0.707599 0.39531,0.995667 0.44741,2.896847 0.053,1.934461 0.13509,2.532933 0.43274,3.155669 0.35398,0.740587 0.83611,1.138111 1.62739,1.3418 0.20638,0.05313 0.84816,0.142383 1.42618,0.19835 1.62635,0.157475 2.05335,0.277503 2.48269,0.697871 0.31192,0.305405 0.46098,0.698203 0.49115,1.294212 0.0334,0.659595 -0.10112,1.193601 -0.69888,2.774691 -0.50188,1.32751 -0.61522,1.74444 -0.70727,2.60198 -0.11761,1.09566 -0.40394,1.42355 -1.63507,1.87236 -1.39475,0.50846 -1.94983,0.83972 -2.74614,1.63881 -0.85687,0.85986 -1.4828,1.87403 -2.10782,3.41522 -0.19351,0.47716 -0.44453,1.16434 -0.55783,1.52707 -0.27076,0.86685 -0.43182,1.16479 -0.8427,1.55874 -0.44704,0.42863 -0.81619,0.6539 -2.16069,1.31851 -1.28766,0.63652 -2.06519,1.12541 -2.39736,1.50742 -0.68386,0.78647 -0.80844,1.70025 -0.38645,2.83458 0.20954,0.56325 0.47559,1.03447 1.24362,2.20266 0.66956,1.01843 1.06225,1.76158 1.0613,2.00851 -5.3e-4,0.14611 -10e-4,0.14624 -0.68754,0.10191 -0.56237,-0.0363 -0.72258,-0.0261 -0.88328,0.0562 -0.27158,0.13912 -0.37074,0.40683 -0.31746,0.85707 0.0981,0.82871 0.10003,0.94175 0.019,1.09342 -0.11932,0.22332 -0.4171,0.37429 -0.95368,0.4835 -0.25784,0.0525 -0.53107,0.13561 -0.60718,0.18472 -0.19815,0.12788 -0.37737,0.66277 -0.4685,1.39829 -0.0992,0.80106 -0.16591,1.0547 -0.33245,1.26474 -0.15328,0.19335 -0.46765,0.22966 -0.53147,0.0614 z"
     id="path2708" />
  <path
     style="fill:#ffffff;stroke-width:0.063717"
     d="m 161.19961,133.90082 c -0.13595,-0.0925 -0.36147,-0.27352 -0.50115,-0.40235 -0.63443,-0.58517 -1.13889,-0.81462 -1.57569,-0.71672 -0.13232,0.0297 -0.4857,0.23058 -0.7853,0.4465 -0.29959,0.21591 -0.64361,0.41947 -0.76449,0.45235 -0.27487,0.0748 -0.87803,-0.0297 -1.3652,-0.23638 -0.86561,-0.36728 -2.46126,-1.14857 -3.26974,-1.60099 -0.48588,-0.27189 -1.11455,-0.61168 -1.39705,-0.75508 -0.2825,-0.1434 -0.82379,-0.47695 -1.20287,-0.74121 -1.04559,-0.7289 -1.59341,-0.87815 -2.18404,-0.59503 -0.48508,0.23253 -0.626,0.58642 -0.76505,1.92126 -0.14363,1.37889 -0.24434,1.65232 -0.67331,1.82807 -0.47314,0.19385 -0.89674,-0.0851 -1.75262,-1.15431 -0.61843,-0.77254 -1.05959,-1.21421 -1.38052,-1.38209 -0.53675,-0.28079 -1.36021,-0.24353 -2.34012,0.10587 -1.50452,0.53647 -1.81747,0.62974 -2.22116,0.66203 -0.54001,0.0432 -0.81155,-0.0662 -1.4432,-0.58112 -0.55435,-0.45194 -0.88538,-0.61857 -1.23153,-0.61989 -0.32904,-0.001 -0.54504,0.10225 -1.12823,0.54072 -0.24742,0.18602 -0.53485,0.37082 -0.63876,0.41067 -0.3295,0.12639 -1.90352,0.14683 -2.49274,0.0324 -0.96491,-0.18743 -1.74029,-0.69651 -1.73681,-1.14031 0.003,-0.33868 0.0625,-0.48197 0.23343,-0.55906 0.24343,-0.10979 0.41022,-0.57352 0.54428,-1.5133 0.1724,-1.20847 0.21616,-1.27154 0.97825,-1.40995 0.50037,-0.0909 0.8891,-0.32434 1.03018,-0.61872 0.11324,-0.23628 0.11356,-0.6183 0.001,-1.33856 -0.0345,-0.22103 -0.0181,-0.28637 0.10135,-0.40497 0.13572,-0.13468 0.17406,-0.13913 0.80588,-0.0936 0.56846,0.041 0.68717,0.0323 0.82964,-0.0602 0.15314,-0.0995 0.16364,-0.13441 0.13306,-0.44225 -0.0441,-0.44427 -0.31924,-0.97909 -1.18366,-2.30103 -0.39055,-0.59726 -0.79075,-1.24683 -0.88933,-1.44349 -0.78982,-1.57561 -0.52987,-2.68717 0.83826,-3.58455 0.23202,-0.15218 0.89585,-0.51081 1.47518,-0.79695 1.42017,-0.70145 1.84536,-0.95412 2.28455,-1.35761 0.48084,-0.44176 0.63517,-0.73326 1.06252,-2.00693 0.76195,-2.27093 1.54495,-3.65824 2.6629,-4.71814 0.64152,-0.60821 1.20103,-0.93515 2.32925,-1.36107 0.49738,-0.18777 0.996,-0.39757 1.10804,-0.46622 0.24877,-0.15243 0.56937,-0.50646 0.63036,-0.69608 0.0378,-0.11742 0.0977,-0.0384 0.37262,0.49106 0.72495,1.39634 1.7804,3.0736 2.52745,4.01648 0.2228,0.28122 0.44479,0.58313 0.4933,0.67093 0.062,0.11228 0.0971,0.49988 0.11819,1.30666 0.0417,1.59542 0.10281,1.69595 1.45833,2.39962 0.6866,0.35642 0.96575,0.60702 0.96476,0.86611 -8e-4,0.22387 -0.13916,0.32039 -0.5834,0.40718 -0.72486,0.1416 -0.86789,0.19833 -1.09386,0.4338 -0.63173,0.65831 -1.22047,2.35947 -1.22164,3.52995 -8e-4,0.8615 0.33511,1.83225 0.78655,2.27257 l 0.22954,0.2239 1.03173,0.006 c 0.95352,0.005 1.07122,0.0191 1.55294,0.18277 0.28667,0.0974 0.97362,0.40907 1.52655,0.69266 l 1.00534,0.51562 0.47794,-0.0182 c 0.44511,-0.017 0.54814,-0.0513 1.49928,-0.49993 1.15877,-0.54653 1.52707,-0.65135 2.12904,-0.60595 0.47387,0.0357 0.87032,0.1917 1.44372,0.56798 0.59915,0.39316 0.71091,0.37053 1.70828,-0.34589 0.3566,-0.25615 0.51607,-0.27143 1.01577,-0.0974 0.71682,0.24971 1.36484,0.76096 1.60318,1.26483 0.26702,0.56448 0.35159,7.36292 0.10139,8.15003 -0.13414,0.42197 -0.38592,0.67106 -1.30318,1.28925 -0.4125,0.27801 -0.92135,0.64994 -1.13078,0.82651 -0.20943,0.17656 -0.4282,0.32084 -0.48615,0.32062 -0.058,-2.2e-4 -0.21661,-0.0761 -0.35256,-0.16851 z"
     id="path2747" />
  <path
     style="fill:#ffffff;stroke-width:0.063717"
     d="m 189.26047,131.71434 c -0.64137,-0.14016 -1.00248,-0.29361 -1.88638,-0.8016 -1.40865,-0.80959 -5.59735,-3.69038 -5.7492,-3.95404 -0.0342,-0.0594 -0.0761,-0.4589 -0.093,-0.88767 -0.0287,-0.7261 -0.0417,-0.79003 -0.18911,-0.93171 -0.29257,-0.28109 -1.51867,-0.68145 -2.83148,-0.92458 -0.98585,-0.18257 -4.07398,-0.17803 -6.11689,0.009 -1.94821,0.17836 -1.96469,0.18495 -2.93433,1.17373 -0.38766,0.3953 -0.79527,0.7792 -0.90581,0.85309 -0.40688,0.27201 -0.91408,0.34776 -2.26348,0.33801 -0.68858,-0.005 -1.2803,-0.0267 -1.31492,-0.0483 -0.0359,-0.0224 -0.0793,-0.60716 -0.10114,-1.3621 -0.0238,-0.82416 -0.0722,-1.44734 -0.12853,-1.65305 -0.17016,-0.62195 -0.96179,-1.31277 -1.8507,-1.61505 -0.72467,-0.24642 -1.01361,-0.1767 -1.76645,0.42625 -0.37347,0.29911 -0.50772,0.31093 -0.83554,0.0736 -0.15371,-0.11129 -0.47377,-0.29423 -0.71124,-0.40654 -0.36197,-0.17119 -0.52549,-0.20867 -1.01182,-0.23189 -0.74013,-0.0354 -1.04961,0.0505 -2.28217,0.63327 -1.35673,0.64146 -1.34808,0.64152 -2.66306,-0.0177 -1.57825,-0.79118 -1.84665,-0.86938 -3.04353,-0.8867 -0.54316,-0.008 -1.0231,-0.0178 -1.06653,-0.0221 -0.12009,-0.0119 -0.50305,-0.63091 -0.65661,-1.06138 -0.10914,-0.30594 -0.13666,-0.53 -0.13702,-1.11558 -5.2e-4,-0.9073 0.15435,-1.53945 0.60049,-2.45081 0.46169,-0.9431 0.5101,-0.9813 1.48526,-1.1719 0.595,-0.1163 0.86432,-0.41822 0.78045,-0.87494 -0.0604,-0.32903 -0.41601,-0.64646 -1.15134,-1.02775 -1.21004,-0.62745 -1.23874,-0.67703 -1.28199,-2.21459 -0.0368,-1.30993 -0.0281,-1.28205 -0.64765,-2.05848 -0.75618,-0.94763 -1.71582,-2.47435 -2.59272,-4.12483 l -0.40189,-0.75643 0.0514,-0.51156 c 0.0659,-0.65503 0.23456,-1.26209 0.65908,-2.37168 l 0.3405,-0.88998 0.28098,-0.0477 c 0.34807,-0.0591 1.051,0.0346 1.35591,0.1807 0.12568,0.0602 0.57668,0.48256 1.00224,0.93851 0.78804,0.84433 1.05279,1.04116 1.49864,1.11421 0.29501,0.0483 0.50611,-0.0438 1.05128,-0.45887 0.20136,-0.1533 0.46807,-0.32087 0.5927,-0.37238 0.59014,-0.24392 2.34507,-0.53137 3.96906,-0.65012 0.75,-0.0548 1.03407,-0.049 1.62466,0.0331 0.39366,0.0547 1.41318,0.17582 2.26561,0.26903 1.74688,0.19103 2.19134,0.2725 3.09866,0.56802 0.68258,0.22232 3.27969,1.4956 3.59367,1.76187 0.20079,0.17028 0.30809,0.47239 0.4414,1.24275 0.0866,0.50034 0.23727,0.77501 0.52087,0.94942 0.31895,0.19615 0.66904,0.16453 1.42839,-0.129 1.20545,-0.46597 1.33572,-0.4242 1.64243,0.5267 0.25041,0.77633 0.35159,0.8576 1.07123,0.86036 0.45138,0.002 0.57642,-0.0242 0.9359,-0.19424 0.2282,-0.10793 0.74557,-0.43386 1.1497,-0.72428 1.30732,-0.93949 1.90711,-1.21259 2.43923,-1.11065 0.12879,0.0247 0.4611,0.22668 0.80399,0.48874 0.32147,0.24567 0.66236,0.46592 0.75754,0.48945 0.10598,0.0262 0.5175,0.39268 1.06164,0.9455 1.30667,1.32752 2.24213,2.04878 3.06609,2.36403 0.31803,0.12168 0.48805,0.13955 1.32078,0.13886 0.84828,-8e-4 1.08485,-0.0272 2.10358,-0.23568 1.50056,-0.30707 2.3304,-0.35386 2.94101,-0.16583 0.52199,0.16074 0.91662,0.47331 1.06223,0.84132 0.0575,0.14546 0.12801,0.62739 0.16326,1.11678 0.0763,1.05979 0.19771,1.42498 0.60533,1.82153 0.64196,0.62452 0.78269,0.97746 0.55991,1.40424 -0.0536,0.10275 -0.36303,0.40436 -0.68754,0.67023 -0.32451,0.26586 -0.7464,0.66959 -0.93755,0.89718 l -0.34754,0.41379 -0.70521,-0.0459 c -0.66366,-0.0432 -0.72214,-0.0371 -0.99252,0.10431 -0.58917,0.3081 -1.15163,1.22828 -1.15417,1.88823 -0.003,0.80426 0.37975,1.1199 1.78756,1.47382 0.90054,0.22639 1.25949,0.38386 1.4817,0.65001 0.21786,0.26094 0.2579,0.56294 0.16816,1.26815 -0.15424,1.21203 -0.087,1.60532 0.35185,2.05944 0.33452,0.34611 0.62138,0.49772 1.66608,0.88053 1.07189,0.39276 1.38501,0.56137 1.67363,0.90119 0.26751,0.31496 0.52983,1.07806 0.61974,1.80279 0.11917,0.96074 -0.11824,2.0634 -0.59103,2.74495 -0.70627,1.01813 -2.46467,1.536 -4.04374,1.19093 z"
     id="path2898" />
</svg>
